<svg width="986" height="150" viewBox="0 0 986 150" fill="none" xmlns="http://www.w3.org/2000/svg">
<rect width="986" height="150" fill="#F5F5F5"/>
<rect width="986" height="150" fill="#87C780"/>
<path d="M192.599 95V63.836H196.715V91.724C196.715 92.06 196.785 92.298 196.925 92.438C197.093 92.578 197.359 92.648 197.723 92.648H202.343C205.143 92.648 207.215 92.13 208.559 91.094C209.903 90.058 210.575 88.476 210.575 86.348C210.575 84.248 209.861 82.708 208.433 81.728C207.005 80.748 204.765 80.258 201.713 80.258H196.715V77.906H201.713C204.093 77.906 205.829 77.402 206.921 76.394C208.013 75.386 208.559 73.79 208.559 71.606C208.559 69.758 208.055 68.4 207.047 67.532C206.039 66.636 204.471 66.188 202.343 66.188H196.715V63.836H202.343C205.927 63.836 208.559 64.452 210.239 65.684C211.919 66.916 212.759 68.848 212.759 71.48C212.759 72.74 212.507 73.846 212.003 74.798C211.527 75.722 210.911 76.506 210.155 77.15C209.399 77.794 208.601 78.284 207.761 78.62C206.949 78.928 206.193 79.082 205.493 79.082V78.662C206.109 78.662 206.823 78.76 207.635 78.956C208.475 79.124 209.329 79.404 210.197 79.796C211.065 80.188 211.863 80.692 212.591 81.308C213.319 81.924 213.907 82.666 214.355 83.534C214.831 84.374 215.069 85.368 215.069 86.516C215.069 89.372 214.019 91.5 211.919 92.9C209.819 94.3 206.627 95 202.343 95H192.599ZM188.105 95C187.853 95 187.727 94.86 187.727 94.58V94.034C187.727 93.754 187.867 93.6 188.147 93.572L191.759 92.942C192.095 92.886 192.319 92.788 192.431 92.648C192.543 92.48 192.599 92.228 192.599 91.892V85.97H196.715V95H188.105ZM187.727 64.256C187.727 63.976 187.853 63.836 188.105 63.836H196.715V72.866H192.599V66.944C192.599 66.608 192.543 66.37 192.431 66.23C192.319 66.062 192.095 65.95 191.759 65.894L188.147 65.264C187.867 65.236 187.727 65.082 187.727 64.802V64.256ZM229.403 95.336C227.583 95.336 225.917 94.916 224.405 94.076C222.893 93.208 221.689 91.976 220.793 90.38C219.925 88.756 219.491 86.81 219.491 84.542C219.491 82.246 219.953 80.328 220.877 78.788C221.801 77.22 223.033 76.03 224.573 75.218C226.113 74.406 227.807 74 229.655 74C231.223 74 232.651 74.378 233.939 75.134C235.255 75.862 236.305 76.912 237.089 78.284C237.873 79.656 238.265 81.294 238.265 83.198C238.265 83.31 238.265 83.45 238.265 83.618C238.265 83.786 238.251 83.94 238.223 84.08C238.139 84.332 237.971 84.458 237.719 84.458H222.809V82.526H235.703L234.737 83.45C234.737 83.31 234.737 83.184 234.737 83.072C234.737 82.932 234.737 82.806 234.737 82.694C234.737 81.462 234.499 80.37 234.023 79.418C233.547 78.466 232.889 77.71 232.049 77.15C231.237 76.59 230.299 76.31 229.235 76.31C227.387 76.31 225.945 77.01 224.909 78.41C223.901 79.782 223.397 81.756 223.397 84.332C223.397 85.928 223.705 87.37 224.321 88.658C224.937 89.946 225.777 90.968 226.841 91.724C227.905 92.452 229.109 92.816 230.453 92.816C232.637 92.816 234.443 92.2 235.871 90.968C236.067 90.8 236.235 90.828 236.375 91.052L236.753 91.598C236.893 91.794 236.879 92.018 236.711 92.27C235.843 93.222 234.765 93.978 233.477 94.538C232.217 95.07 230.859 95.336 229.403 95.336ZM270.184 95C269.932 95 269.806 94.86 269.806 94.58V94.16C269.806 93.88 269.946 93.726 270.226 93.698L272.41 93.32C272.802 93.236 273.04 93.138 273.124 93.026C273.208 92.914 273.25 92.662 273.25 92.27V81.35C273.25 79.978 272.928 78.942 272.284 78.242C271.668 77.514 270.758 77.15 269.554 77.15C267.23 77.15 264.948 78.34 262.708 80.72L262.33 79.712C263.002 78.592 263.828 77.612 264.808 76.772C265.788 75.904 266.838 75.232 267.958 74.756C269.078 74.252 270.198 74 271.318 74C273.222 74 274.664 74.574 275.644 75.722C276.624 76.87 277.114 78.578 277.114 80.846V92.312C277.114 92.676 277.156 92.914 277.24 93.026C277.352 93.138 277.604 93.222 277.996 93.278L280.6 93.74C280.852 93.768 280.978 93.922 280.978 94.202V94.622C280.978 94.874 280.838 95 280.558 95H270.184ZM242.59 95C242.338 95 242.212 94.86 242.212 94.58V94.16C242.212 93.88 242.352 93.726 242.632 93.698L244.312 93.32C244.704 93.236 244.942 93.138 245.026 93.026C245.11 92.914 245.152 92.662 245.152 92.27V81.728H249.016V92.312C249.016 92.676 249.058 92.914 249.142 93.026C249.254 93.138 249.506 93.236 249.898 93.32L252.04 93.698C252.292 93.782 252.418 93.95 252.418 94.202V94.622C252.418 94.874 252.278 95 251.998 95H242.59ZM256.366 95C256.114 95 255.988 94.86 255.988 94.58V94.16C255.988 93.88 256.128 93.726 256.408 93.698L258.256 93.32C258.648 93.236 258.886 93.138 258.97 93.026C259.054 92.914 259.096 92.662 259.096 92.27V81.35C259.096 79.978 258.788 78.942 258.172 78.242C257.556 77.514 256.646 77.15 255.442 77.15C253.146 77.15 250.85 78.34 248.554 80.72L248.176 79.712C249.24 78.032 250.598 76.66 252.25 75.596C253.902 74.532 255.568 74 257.248 74C259.152 74 260.58 74.588 261.532 75.764C262.484 76.912 262.96 78.606 262.96 80.846V92.312C262.96 92.676 263.002 92.914 263.086 93.026C263.198 93.138 263.45 93.236 263.842 93.32L265.69 93.698C265.942 93.782 266.068 93.95 266.068 94.202V94.622C266.068 94.874 265.928 95 265.648 95H256.366ZM245.152 81.728V75.596L245.908 76.856L242.296 76.268C242.044 76.24 241.918 76.086 241.918 75.806V75.302C241.918 75.078 242.058 74.924 242.338 74.84L247.672 74.042C248.064 73.986 248.344 74.014 248.512 74.126C248.68 74.21 248.764 74.434 248.764 74.798V78.956L249.016 79.67V81.728H245.152ZM309.254 95C309.03 95 308.848 94.874 308.708 94.622L296.528 66.566C296.388 66.258 296.206 66.034 295.982 65.894C295.786 65.726 295.506 65.614 295.142 65.558L293 65.222C292.748 65.194 292.622 65.04 292.622 64.76V64.214C292.622 63.962 292.762 63.836 293.042 63.836H306.23C306.482 63.836 306.608 63.976 306.608 64.256V64.802C306.608 65.054 306.468 65.194 306.188 65.222L302.996 65.558C302.128 65.642 301.61 65.838 301.442 66.146C301.302 66.426 301.4 66.958 301.736 67.742L311.816 91.43L309.296 92.9L319.208 67.742C319.516 66.93 319.572 66.384 319.376 66.104C319.18 65.824 318.662 65.642 317.822 65.558L314.63 65.222C314.378 65.194 314.252 65.04 314.252 64.76V64.214C314.252 63.962 314.392 63.836 314.672 63.836H326.348C326.6 63.836 326.726 63.976 326.726 64.256V64.802C326.726 65.054 326.586 65.194 326.306 65.222L323.87 65.6C323.534 65.628 323.268 65.726 323.072 65.894C322.876 66.062 322.708 66.314 322.568 66.65L311.186 94.664C311.102 94.888 310.92 95 310.64 95H309.254ZM330.178 95V81.686H334.042V95H330.178ZM327.658 95C327.406 95 327.28 94.86 327.28 94.58V94.16C327.28 93.88 327.42 93.726 327.7 93.698L329.338 93.32C329.73 93.236 329.968 93.138 330.052 93.026C330.136 92.914 330.178 92.662 330.178 92.27V87.44H334.042V92.312C334.042 92.676 334.084 92.914 334.168 93.026C334.28 93.138 334.532 93.222 334.924 93.278L337.528 93.74C337.78 93.768 337.906 93.922 337.906 94.202V94.622C337.906 94.874 337.766 95 337.486 95H327.658ZM330.178 81.686V75.554L330.934 76.814L327.322 76.226C327.07 76.198 326.944 76.044 326.944 75.764V75.26C326.944 75.008 327.084 74.868 327.364 74.84L332.95 74C333.342 73.944 333.622 73.972 333.79 74.084C333.958 74.168 334.042 74.392 334.042 74.756V81.686H330.178ZM332.152 70.304C331.452 70.304 330.85 70.08 330.346 69.632C329.842 69.184 329.59 68.624 329.59 67.952C329.59 67.28 329.842 66.72 330.346 66.272C330.85 65.824 331.452 65.6 332.152 65.6C332.88 65.6 333.482 65.824 333.958 66.272C334.462 66.72 334.714 67.28 334.714 67.952C334.714 68.624 334.462 69.184 333.958 69.632C333.482 70.08 332.88 70.304 332.152 70.304ZM359.158 81.35C359.158 79.978 358.808 78.942 358.108 78.242C357.408 77.514 356.372 77.15 355 77.15C353.796 77.15 352.55 77.472 351.262 78.116C349.974 78.732 348.77 79.6 347.65 80.72L347.272 79.712C348.028 78.592 348.924 77.612 349.96 76.772C350.996 75.904 352.102 75.232 353.278 74.756C354.454 74.252 355.63 74 356.806 74C358.878 74 360.432 74.574 361.468 75.722C362.504 76.87 363.022 78.578 363.022 80.846V95H359.158V81.35ZM344.164 95V81.728H348.028V95H344.164ZM341.644 95C341.392 95 341.266 94.86 341.266 94.58V94.16C341.266 93.88 341.406 93.726 341.686 93.698L343.324 93.32C343.716 93.236 343.954 93.138 344.038 93.026C344.122 92.914 344.164 92.662 344.164 92.27V87.44H348.028V92.312C348.028 92.676 348.07 92.914 348.154 93.026C348.266 93.138 348.518 93.222 348.91 93.278L351.514 93.74C351.766 93.768 351.892 93.922 351.892 94.202V94.622C351.892 94.874 351.752 95 351.472 95H341.644ZM356.638 95C356.386 95 356.26 94.86 356.26 94.58V94.16C356.26 93.88 356.4 93.726 356.68 93.698L358.318 93.32C358.71 93.236 358.948 93.138 359.032 93.026C359.116 92.914 359.158 92.662 359.158 92.27V87.44H363.022V92.312C363.022 92.676 363.064 92.914 363.148 93.026C363.26 93.138 363.512 93.222 363.904 93.278L366.508 93.74C366.76 93.768 366.886 93.922 366.886 94.202V94.622C366.886 94.874 366.746 95 366.466 95H356.638ZM344.164 81.728V75.596L344.92 76.856L341.308 76.268C341.056 76.24 340.93 76.086 340.93 75.806V75.302C340.93 75.078 341.07 74.924 341.35 74.84L346.684 74.042C347.076 73.986 347.356 74.014 347.524 74.126C347.692 74.21 347.776 74.434 347.776 74.798V78.956L348.028 79.67V81.728H344.164ZM385.773 88.196V69.926H389.637V88.196H385.773ZM386.445 79.124C385.689 78.228 384.807 77.57 383.799 77.15C382.819 76.73 381.713 76.52 380.481 76.52C378.353 76.52 376.701 77.248 375.525 78.704C374.349 80.16 373.761 82.204 373.761 84.836C373.761 87.16 374.251 88.98 375.231 90.296C376.239 91.612 377.611 92.27 379.347 92.27C380.607 92.27 381.811 91.962 382.959 91.346C384.135 90.73 385.171 89.862 386.067 88.742L386.487 89.708C385.507 91.444 384.261 92.816 382.749 93.824C381.265 94.832 379.739 95.336 378.171 95.336C376.463 95.336 374.979 94.916 373.719 94.076C372.459 93.236 371.493 92.046 370.821 90.506C370.149 88.966 369.813 87.132 369.813 85.004C369.813 82.764 370.205 80.818 370.989 79.166C371.801 77.514 372.935 76.24 374.391 75.344C375.847 74.42 377.541 73.958 379.473 73.958C381.237 73.958 382.805 74.336 384.177 75.092C385.549 75.848 386.655 76.954 387.495 78.41L386.445 79.124ZM385.773 71.144V65.012L386.529 66.272L382.917 65.684C382.665 65.656 382.539 65.502 382.539 65.222V64.718C382.539 64.466 382.679 64.326 382.959 64.298L388.545 63.458C388.937 63.402 389.217 63.43 389.385 63.542C389.553 63.626 389.637 63.85 389.637 64.214V71.144H385.773ZM389.637 88.196V93.824L388.839 92.522L392.451 93.362C392.703 93.446 392.829 93.614 392.829 93.866V94.37C392.829 94.622 392.689 94.762 392.409 94.79L386.571 95.336C386.375 95.364 386.207 95.322 386.067 95.21C385.955 95.126 385.899 94.972 385.899 94.748V89.96L385.773 89.582V88.196H389.637ZM406.847 95.336C404.775 95.336 402.955 94.902 401.387 94.034C399.819 93.138 398.601 91.892 397.733 90.296C396.893 88.7 396.473 86.838 396.473 84.71C396.473 82.554 396.893 80.678 397.733 79.082C398.601 77.458 399.819 76.212 401.387 75.344C402.955 74.448 404.775 74 406.847 74C408.975 74 410.809 74.448 412.349 75.344C413.917 76.212 415.135 77.458 416.003 79.082C416.871 80.678 417.305 82.554 417.305 84.71C417.305 86.838 416.871 88.7 416.003 90.296C415.135 91.892 413.917 93.138 412.349 94.034C410.809 94.902 408.975 95.336 406.847 95.336ZM406.931 92.858C408.947 92.858 410.501 92.144 411.593 90.716C412.713 89.288 413.273 87.3 413.273 84.752C413.273 83.1 412.993 81.658 412.433 80.426C411.873 79.194 411.103 78.228 410.123 77.528C409.171 76.828 408.051 76.478 406.763 76.478C404.775 76.478 403.235 77.192 402.143 78.62C401.051 80.02 400.505 81.994 400.505 84.542C400.505 87.034 401.093 89.05 402.269 90.59C403.473 92.102 405.027 92.858 406.931 92.858ZM437.449 95.336C435.769 95.336 434.397 94.846 433.333 93.866C432.269 92.886 431.737 91.626 431.737 90.086C431.737 88.35 432.353 87.006 433.585 86.054C434.845 85.102 436.791 84.472 439.423 84.164L445.261 83.45L445.177 85.34L440.179 86.012C438.499 86.264 437.281 86.67 436.525 87.23C435.797 87.79 435.433 88.588 435.433 89.624C435.433 90.52 435.727 91.234 436.315 91.766C436.931 92.298 437.757 92.564 438.793 92.564C439.857 92.564 440.795 92.396 441.607 92.06C442.447 91.696 443.147 91.29 443.707 90.842C444.267 90.394 444.659 90.016 444.883 89.708L445.387 90.254C445.303 90.702 445.037 91.22 444.589 91.808C444.169 92.368 443.595 92.928 442.867 93.488C442.167 94.02 441.355 94.468 440.431 94.832C439.507 95.168 438.513 95.336 437.449 95.336ZM444.799 81.224C444.799 79.656 444.393 78.452 443.581 77.612C442.769 76.744 441.621 76.31 440.137 76.31C439.409 76.31 438.751 76.394 438.163 76.562C437.575 76.702 437.071 77.01 436.651 77.486C436.259 77.934 435.965 78.62 435.769 79.544L435.475 81.014C435.391 81.266 435.223 81.392 434.971 81.392H434.509C434.229 81.392 434.075 81.252 434.047 80.972C433.879 80.188 433.711 79.418 433.543 78.662C433.403 77.878 433.263 77.108 433.123 76.352C433.067 76.128 433.165 75.946 433.417 75.806C434.145 75.47 435.125 75.092 436.357 74.672C437.617 74.224 439.017 74 440.557 74C443.077 74 445.051 74.63 446.479 75.89C447.935 77.15 448.663 78.872 448.663 81.056V88.196H444.799V81.224ZM448.663 88.196V93.824L447.865 92.522L451.477 93.362C451.729 93.446 451.855 93.614 451.855 93.866V94.37C451.855 94.622 451.715 94.762 451.435 94.79L449.209 95C447.949 95.112 447.011 95.14 446.395 95.084C445.779 95.056 445.373 94.874 445.177 94.538C444.981 94.202 444.883 93.684 444.883 92.984V90.842L444.799 90.506V88.196H448.663ZM481.637 95.336C478.557 95.336 475.855 94.678 473.531 93.362C471.207 92.018 469.387 90.156 468.071 87.776C466.783 85.368 466.139 82.582 466.139 79.418C466.139 76.254 466.783 73.482 468.071 71.102C469.387 68.722 471.207 66.86 473.531 65.516C475.883 64.172 478.585 63.5 481.637 63.5C483.513 63.5 485.081 63.668 486.341 64.004C487.629 64.312 488.777 64.662 489.785 65.054L491.339 65.348C491.619 65.376 491.815 65.432 491.927 65.516C492.067 65.6 492.165 65.754 492.221 65.978C492.305 66.202 492.361 66.552 492.389 67.028L492.893 73.58C492.921 73.804 492.795 73.958 492.515 74.042L491.759 74.168C491.507 74.196 491.339 74.084 491.255 73.832L489.785 69.548C489.673 69.24 489.547 68.988 489.407 68.792C489.295 68.596 489.113 68.4 488.861 68.204C487.909 67.532 486.803 67.028 485.543 66.692C484.311 66.356 482.967 66.188 481.511 66.188C479.299 66.188 477.381 66.734 475.757 67.826C474.133 68.89 472.873 70.416 471.977 72.404C471.109 74.364 470.675 76.702 470.675 79.418C470.675 82.106 471.109 84.444 471.977 86.432C472.873 88.42 474.133 89.96 475.757 91.052C477.381 92.144 479.299 92.69 481.511 92.69C482.995 92.69 484.353 92.522 485.585 92.186C486.845 91.85 487.937 91.346 488.861 90.674C489.141 90.45 489.337 90.24 489.449 90.044C489.589 89.848 489.715 89.596 489.827 89.288L491.255 85.004C491.339 84.724 491.521 84.626 491.801 84.71L492.557 84.836C492.809 84.864 492.921 85.018 492.893 85.298L492.347 92.396C492.319 92.648 492.263 92.858 492.179 93.026C492.123 93.166 491.983 93.278 491.759 93.362C491.563 93.446 491.241 93.53 490.793 93.614L489.785 93.824C488.777 94.188 487.629 94.538 486.341 94.874C485.081 95.182 483.513 95.336 481.637 95.336ZM500.617 95V71.102H504.481V95H500.617ZM498.097 95C497.845 95 497.719 94.86 497.719 94.58V94.16C497.719 93.88 497.859 93.726 498.139 93.698L499.777 93.32C500.169 93.236 500.407 93.138 500.491 93.026C500.575 92.914 500.617 92.662 500.617 92.27V87.44H504.481V92.312C504.481 92.676 504.523 92.914 504.607 93.026C504.719 93.138 504.971 93.222 505.363 93.278L507.967 93.74C508.219 93.768 508.345 93.922 508.345 94.202V94.622C508.345 94.874 508.205 95 507.925 95H498.097ZM500.617 71.144V65.012L501.373 66.272L497.761 65.684C497.509 65.656 497.383 65.502 497.383 65.222V64.718C497.383 64.466 497.523 64.326 497.803 64.298L503.389 63.458C503.781 63.402 504.061 63.43 504.229 63.542C504.397 63.626 504.481 63.85 504.481 64.214V71.144H500.617ZM513.846 95V81.686H517.71V95H513.846ZM511.326 95C511.074 95 510.948 94.86 510.948 94.58V94.16C510.948 93.88 511.088 93.726 511.368 93.698L513.006 93.32C513.398 93.236 513.636 93.138 513.72 93.026C513.804 92.914 513.846 92.662 513.846 92.27V87.44H517.71V92.312C517.71 92.676 517.752 92.914 517.836 93.026C517.948 93.138 518.2 93.222 518.592 93.278L521.196 93.74C521.448 93.768 521.574 93.922 521.574 94.202V94.622C521.574 94.874 521.434 95 521.154 95H511.326ZM513.846 81.686V75.554L514.602 76.814L510.99 76.226C510.738 76.198 510.612 76.044 510.612 75.764V75.26C510.612 75.008 510.752 74.868 511.032 74.84L516.618 74C517.01 73.944 517.29 73.972 517.458 74.084C517.626 74.168 517.71 74.392 517.71 74.756V81.686H513.846ZM514.266 71.522C514.098 71.69 513.888 71.704 513.636 71.564L513.132 71.228C512.88 71.088 512.852 70.92 513.048 70.724C514.028 69.576 514.938 68.4 515.778 67.196C516.618 65.992 517.402 64.788 518.13 63.584C518.298 63.36 518.508 63.262 518.76 63.29C519.124 63.346 519.502 63.458 519.894 63.626C520.314 63.794 520.692 63.976 521.028 64.172C521.252 64.312 521.392 64.438 521.448 64.55C521.532 64.662 521.518 64.816 521.406 65.012C521.322 65.18 521.126 65.432 520.818 65.768C519.838 66.776 518.788 67.756 517.668 68.708C516.548 69.66 515.414 70.598 514.266 71.522ZM542.826 81.35C542.826 79.978 542.476 78.942 541.776 78.242C541.076 77.514 540.04 77.15 538.668 77.15C537.464 77.15 536.218 77.472 534.93 78.116C533.642 78.732 532.438 79.6 531.318 80.72L530.94 79.712C531.696 78.592 532.592 77.612 533.628 76.772C534.664 75.904 535.77 75.232 536.946 74.756C538.122 74.252 539.298 74 540.474 74C542.546 74 544.1 74.574 545.136 75.722C546.172 76.87 546.69 78.578 546.69 80.846V95H542.826V81.35ZM527.832 95V81.728H531.696V95H527.832ZM525.312 95C525.06 95 524.934 94.86 524.934 94.58V94.16C524.934 93.88 525.074 93.726 525.354 93.698L526.992 93.32C527.384 93.236 527.622 93.138 527.706 93.026C527.79 92.914 527.832 92.662 527.832 92.27V87.44H531.696V92.312C531.696 92.676 531.738 92.914 531.822 93.026C531.934 93.138 532.186 93.222 532.578 93.278L535.182 93.74C535.434 93.768 535.56 93.922 535.56 94.202V94.622C535.56 94.874 535.42 95 535.14 95H525.312ZM540.306 95C540.054 95 539.928 94.86 539.928 94.58V94.16C539.928 93.88 540.068 93.726 540.348 93.698L541.986 93.32C542.378 93.236 542.616 93.138 542.7 93.026C542.784 92.914 542.826 92.662 542.826 92.27V87.44H546.69V92.312C546.69 92.676 546.732 92.914 546.816 93.026C546.928 93.138 547.18 93.222 547.572 93.278L550.176 93.74C550.428 93.768 550.554 93.922 550.554 94.202V94.622C550.554 94.874 550.414 95 550.134 95H540.306ZM527.832 81.728V75.596L528.588 76.856L524.976 76.268C524.724 76.24 524.598 76.086 524.598 75.806V75.302C524.598 75.078 524.738 74.924 525.018 74.84L530.352 74.042C530.744 73.986 531.024 74.014 531.192 74.126C531.36 74.21 531.444 74.434 531.444 74.798V78.956L531.696 79.67V81.728H527.832ZM556.379 95V81.686H560.243V95H556.379ZM553.859 95C553.607 95 553.481 94.86 553.481 94.58V94.16C553.481 93.88 553.621 93.726 553.901 93.698L555.539 93.32C555.931 93.236 556.169 93.138 556.253 93.026C556.337 92.914 556.379 92.662 556.379 92.27V87.44H560.243V92.312C560.243 92.676 560.285 92.914 560.369 93.026C560.481 93.138 560.733 93.222 561.125 93.278L563.729 93.74C563.981 93.768 564.107 93.922 564.107 94.202V94.622C564.107 94.874 563.967 95 563.687 95H553.859ZM556.379 81.686V75.554L557.135 76.814L553.523 76.226C553.271 76.198 553.145 76.044 553.145 75.764V75.26C553.145 75.008 553.285 74.868 553.565 74.84L559.151 74C559.543 73.944 559.823 73.972 559.991 74.084C560.159 74.168 560.243 74.392 560.243 74.756V81.686H556.379ZM558.353 70.304C557.653 70.304 557.051 70.08 556.547 69.632C556.043 69.184 555.791 68.624 555.791 67.952C555.791 67.28 556.043 66.72 556.547 66.272C557.051 65.824 557.653 65.6 558.353 65.6C559.081 65.6 559.683 65.824 560.159 66.272C560.663 66.72 560.915 67.28 560.915 67.952C560.915 68.624 560.663 69.184 560.159 69.632C559.683 70.08 559.081 70.304 558.353 70.304ZM577.211 95.336C575.279 95.336 573.571 94.888 572.087 93.992C570.631 93.096 569.497 91.85 568.685 90.254C567.873 88.658 567.467 86.81 567.467 84.71C567.467 82.582 567.887 80.72 568.727 79.124C569.567 77.528 570.743 76.282 572.255 75.386C573.767 74.462 575.517 74 577.505 74C578.709 74 579.927 74.126 581.159 74.378C582.391 74.602 583.483 74.91 584.435 75.302C584.659 75.414 584.757 75.61 584.729 75.89L584.351 81.686C584.323 81.938 584.169 82.064 583.889 82.064H583.007C582.727 82.064 582.573 81.924 582.545 81.644L581.453 76.352L583.259 77.486C582.475 77.178 581.635 76.94 580.739 76.772C579.843 76.604 578.905 76.52 577.925 76.52C575.797 76.52 574.187 77.178 573.095 78.494C572.031 79.782 571.499 81.714 571.499 84.29C571.499 85.97 571.793 87.454 572.381 88.742C572.997 90.002 573.851 90.996 574.943 91.724C576.035 92.452 577.281 92.816 578.681 92.816C579.661 92.816 580.599 92.662 581.495 92.354C582.419 92.046 583.273 91.584 584.057 90.968C584.253 90.772 584.435 90.8 584.603 91.052L584.981 91.64C585.121 91.808 585.093 92.018 584.897 92.27C584.001 93.25 582.881 94.006 581.537 94.538C580.221 95.07 578.779 95.336 577.211 95.336ZM594.744 95.336C593.064 95.336 591.692 94.846 590.628 93.866C589.564 92.886 589.032 91.626 589.032 90.086C589.032 88.35 589.648 87.006 590.88 86.054C592.14 85.102 594.086 84.472 596.718 84.164L602.556 83.45L602.472 85.34L597.474 86.012C595.794 86.264 594.576 86.67 593.82 87.23C593.092 87.79 592.728 88.588 592.728 89.624C592.728 90.52 593.022 91.234 593.61 91.766C594.226 92.298 595.052 92.564 596.088 92.564C597.152 92.564 598.09 92.396 598.902 92.06C599.742 91.696 600.442 91.29 601.002 90.842C601.562 90.394 601.954 90.016 602.178 89.708L602.682 90.254C602.598 90.702 602.332 91.22 601.884 91.808C601.464 92.368 600.89 92.928 600.162 93.488C599.462 94.02 598.65 94.468 597.726 94.832C596.802 95.168 595.808 95.336 594.744 95.336ZM602.094 81.224C602.094 79.656 601.688 78.452 600.876 77.612C600.064 76.744 598.916 76.31 597.432 76.31C596.704 76.31 596.046 76.394 595.458 76.562C594.87 76.702 594.366 77.01 593.946 77.486C593.554 77.934 593.26 78.62 593.064 79.544L592.77 81.014C592.686 81.266 592.518 81.392 592.266 81.392H591.804C591.524 81.392 591.37 81.252 591.342 80.972C591.174 80.188 591.006 79.418 590.838 78.662C590.698 77.878 590.558 77.108 590.418 76.352C590.362 76.128 590.46 75.946 590.712 75.806C591.44 75.47 592.42 75.092 593.652 74.672C594.912 74.224 596.312 74 597.852 74C600.372 74 602.346 74.63 603.774 75.89C605.23 77.15 605.958 78.872 605.958 81.056V88.196H602.094V81.224ZM605.958 88.196V93.824L605.16 92.522L608.772 93.362C609.024 93.446 609.15 93.614 609.15 93.866V94.37C609.15 94.622 609.01 94.762 608.73 94.79L606.504 95C605.244 95.112 604.306 95.14 603.69 95.084C603.074 95.056 602.668 94.874 602.472 94.538C602.276 94.202 602.178 93.684 602.178 92.984V90.842L602.094 90.506V88.196H605.958ZM626.626 95V63.836H630.742V91.724C630.742 92.06 630.812 92.298 630.952 92.438C631.12 92.578 631.386 92.648 631.75 92.648H636.37C639.17 92.648 641.242 92.13 642.586 91.094C643.93 90.058 644.602 88.476 644.602 86.348C644.602 84.248 643.888 82.708 642.46 81.728C641.032 80.748 638.792 80.258 635.74 80.258H630.742V77.906H635.74C638.12 77.906 639.856 77.402 640.948 76.394C642.04 75.386 642.586 73.79 642.586 71.606C642.586 69.758 642.082 68.4 641.074 67.532C640.066 66.636 638.498 66.188 636.37 66.188H630.742V63.836H636.37C639.954 63.836 642.586 64.452 644.266 65.684C645.946 66.916 646.786 68.848 646.786 71.48C646.786 72.74 646.534 73.846 646.03 74.798C645.554 75.722 644.938 76.506 644.182 77.15C643.426 77.794 642.628 78.284 641.788 78.62C640.976 78.928 640.22 79.082 639.52 79.082V78.662C640.136 78.662 640.85 78.76 641.662 78.956C642.502 79.124 643.356 79.404 644.224 79.796C645.092 80.188 645.89 80.692 646.618 81.308C647.346 81.924 647.934 82.666 648.382 83.534C648.858 84.374 649.096 85.368 649.096 86.516C649.096 89.372 648.046 91.5 645.946 92.9C643.846 94.3 640.654 95 636.37 95H626.626ZM622.132 95C621.88 95 621.754 94.86 621.754 94.58V94.034C621.754 93.754 621.894 93.6 622.174 93.572L625.786 92.942C626.122 92.886 626.346 92.788 626.458 92.648C626.57 92.48 626.626 92.228 626.626 91.892V85.97H630.742V95H622.132ZM621.754 64.256C621.754 63.976 621.88 63.836 622.132 63.836H630.742V72.866H626.626V66.944C626.626 66.608 626.57 66.37 626.458 66.23C626.346 66.062 626.122 65.95 625.786 65.894L622.174 65.264C621.894 65.236 621.754 65.082 621.754 64.802V64.256ZM663.43 95.336C661.61 95.336 659.944 94.916 658.432 94.076C656.92 93.208 655.716 91.976 654.82 90.38C653.952 88.756 653.518 86.81 653.518 84.542C653.518 82.246 653.98 80.328 654.904 78.788C655.828 77.22 657.06 76.03 658.6 75.218C660.14 74.406 661.834 74 663.682 74C665.25 74 666.678 74.378 667.966 75.134C669.282 75.862 670.332 76.912 671.116 78.284C671.9 79.656 672.292 81.294 672.292 83.198C672.292 83.31 672.292 83.45 672.292 83.618C672.292 83.786 672.278 83.94 672.25 84.08C672.166 84.332 671.998 84.458 671.746 84.458H656.836V82.526H669.73L668.764 83.45C668.764 83.31 668.764 83.184 668.764 83.072C668.764 82.932 668.764 82.806 668.764 82.694C668.764 81.462 668.526 80.37 668.05 79.418C667.574 78.466 666.916 77.71 666.076 77.15C665.264 76.59 664.326 76.31 663.262 76.31C661.414 76.31 659.972 77.01 658.936 78.41C657.928 79.782 657.424 81.756 657.424 84.332C657.424 85.928 657.732 87.37 658.348 88.658C658.964 89.946 659.804 90.968 660.868 91.724C661.932 92.452 663.136 92.816 664.48 92.816C666.664 92.816 668.47 92.2 669.898 90.968C670.094 90.8 670.262 90.828 670.402 91.052L670.78 91.598C670.92 91.794 670.906 92.018 670.738 92.27C669.87 93.222 668.792 93.978 667.504 94.538C666.244 95.07 664.886 95.336 663.43 95.336ZM704.212 95C703.96 95 703.834 94.86 703.834 94.58V94.16C703.834 93.88 703.974 93.726 704.254 93.698L706.438 93.32C706.83 93.236 707.068 93.138 707.152 93.026C707.236 92.914 707.278 92.662 707.278 92.27V81.35C707.278 79.978 706.956 78.942 706.312 78.242C705.696 77.514 704.786 77.15 703.582 77.15C701.258 77.15 698.976 78.34 696.736 80.72L696.358 79.712C697.03 78.592 697.856 77.612 698.836 76.772C699.816 75.904 700.866 75.232 701.986 74.756C703.106 74.252 704.226 74 705.346 74C707.25 74 708.692 74.574 709.672 75.722C710.652 76.87 711.142 78.578 711.142 80.846V92.312C711.142 92.676 711.184 92.914 711.268 93.026C711.38 93.138 711.632 93.222 712.024 93.278L714.628 93.74C714.88 93.768 715.006 93.922 715.006 94.202V94.622C715.006 94.874 714.866 95 714.586 95H704.212ZM676.618 95C676.366 95 676.24 94.86 676.24 94.58V94.16C676.24 93.88 676.38 93.726 676.66 93.698L678.34 93.32C678.732 93.236 678.97 93.138 679.054 93.026C679.138 92.914 679.18 92.662 679.18 92.27V81.728H683.044V92.312C683.044 92.676 683.086 92.914 683.17 93.026C683.282 93.138 683.534 93.236 683.926 93.32L686.068 93.698C686.32 93.782 686.446 93.95 686.446 94.202V94.622C686.446 94.874 686.306 95 686.026 95H676.618ZM690.394 95C690.142 95 690.016 94.86 690.016 94.58V94.16C690.016 93.88 690.156 93.726 690.436 93.698L692.284 93.32C692.676 93.236 692.914 93.138 692.998 93.026C693.082 92.914 693.124 92.662 693.124 92.27V81.35C693.124 79.978 692.816 78.942 692.2 78.242C691.584 77.514 690.674 77.15 689.47 77.15C687.174 77.15 684.878 78.34 682.582 80.72L682.204 79.712C683.268 78.032 684.626 76.66 686.278 75.596C687.93 74.532 689.596 74 691.276 74C693.18 74 694.608 74.588 695.56 75.764C696.512 76.912 696.988 78.606 696.988 80.846V92.312C696.988 92.676 697.03 92.914 697.114 93.026C697.226 93.138 697.478 93.236 697.87 93.32L699.718 93.698C699.97 93.782 700.096 93.95 700.096 94.202V94.622C700.096 94.874 699.956 95 699.676 95H690.394ZM679.18 81.728V75.596L679.936 76.856L676.324 76.268C676.072 76.24 675.946 76.086 675.946 75.806V75.302C675.946 75.078 676.086 74.924 676.366 74.84L681.7 74.042C682.092 73.986 682.372 74.014 682.54 74.126C682.708 74.21 682.792 74.434 682.792 74.798V78.956L683.044 79.67V81.728H679.18ZM717.66 84.752C717.408 84.752 717.296 84.612 717.324 84.332L717.534 82.442C717.562 82.19 717.716 82.064 717.996 82.064H726.396L728.958 81.896C729.21 81.868 729.35 81.994 729.378 82.274C729.406 82.638 729.406 82.988 729.378 83.324C729.35 83.66 729.308 84.01 729.252 84.374C729.168 84.626 729 84.752 728.748 84.752H717.66ZM737.409 95V63.836H741.525V91.724C741.525 92.06 741.595 92.298 741.735 92.438C741.903 92.578 742.169 92.648 742.533 92.648H754.839C755.175 92.648 755.441 92.578 755.637 92.438C755.861 92.298 756.057 92.074 756.225 91.766L758.577 87.146C758.689 86.922 758.885 86.852 759.165 86.936L759.879 87.146C760.159 87.23 760.257 87.412 760.173 87.692L759.081 94.328C759.025 94.58 758.955 94.776 758.871 94.916C758.787 95.056 758.633 95.14 758.409 95.168C758.213 95.196 757.877 95.196 757.401 95.168L755.091 95H737.409ZM754.545 84.29C754.293 84.29 754.125 84.15 754.041 83.87L753.285 81.098C753.201 80.79 753.061 80.566 752.865 80.426C752.669 80.286 752.389 80.216 752.025 80.216H741.525V77.864H752.067C752.403 77.864 752.655 77.794 752.823 77.654C753.019 77.486 753.173 77.234 753.285 76.898L754.041 74.63C754.125 74.378 754.307 74.252 754.587 74.252H755.217C755.469 74.252 755.595 74.392 755.595 74.672V83.912C755.595 84.164 755.455 84.29 755.175 84.29H754.545ZM758.241 71.774C758.017 71.83 757.835 71.732 757.695 71.48L755.973 67.028C755.861 66.72 755.693 66.51 755.469 66.398C755.273 66.258 754.993 66.188 754.629 66.188H741.525V63.836H755.091L757.989 63.542C758.269 63.514 758.465 63.528 758.577 63.584C758.717 63.612 758.815 63.738 758.871 63.962C758.927 64.158 758.969 64.494 758.997 64.97L759.333 71.144C759.333 71.424 759.193 71.578 758.913 71.606L758.241 71.774ZM732.915 95C732.663 95 732.537 94.86 732.537 94.58V94.034C732.537 93.754 732.677 93.6 732.957 93.572L736.569 92.942C736.905 92.886 737.129 92.788 737.241 92.648C737.353 92.48 737.409 92.228 737.409 91.892V85.97H741.525V95H732.915ZM732.537 64.256C732.537 63.976 732.663 63.836 732.915 63.836H741.525V72.866H737.409V66.944C737.409 66.608 737.353 66.37 737.241 66.23C737.129 66.062 736.905 65.95 736.569 65.894L732.957 65.264C732.677 65.236 732.537 65.082 732.537 64.802V64.256ZM774.26 82.904C776.024 83.492 777.41 84.066 778.418 84.626C779.454 85.186 780.182 85.802 780.602 86.474C781.022 87.146 781.232 87.944 781.232 88.868C781.232 90.212 780.868 91.374 780.14 92.354C779.412 93.306 778.362 94.048 776.99 94.58C775.646 95.112 774.036 95.378 772.16 95.378C770.732 95.378 769.43 95.252 768.254 95C767.078 94.72 766.126 94.426 765.398 94.118C765.174 94.006 765.048 93.81 765.02 93.53L764.642 88.112C764.614 87.86 764.74 87.72 765.02 87.692L765.692 87.566C765.944 87.538 766.112 87.664 766.196 87.944L766.742 89.876C767.05 90.968 767.596 91.794 768.38 92.354C769.164 92.886 770.41 93.152 772.118 93.152C773.77 93.152 775.044 92.858 775.94 92.27C776.836 91.682 777.284 90.856 777.284 89.792C777.284 89.288 777.13 88.854 776.822 88.49C776.542 88.126 776.024 87.762 775.268 87.398C774.54 87.034 773.504 86.628 772.16 86.18C770.256 85.48 768.772 84.85 767.708 84.29C766.672 83.702 765.958 83.072 765.566 82.4C765.174 81.728 764.978 80.902 764.978 79.922C764.978 78.13 765.762 76.688 767.33 75.596C768.898 74.476 770.956 73.916 773.504 73.916C774.736 73.916 775.884 74.028 776.948 74.252C778.04 74.448 778.838 74.658 779.342 74.882C779.566 74.994 779.678 75.19 779.678 75.47L779.888 80.3C779.888 80.552 779.748 80.692 779.468 80.72L778.754 80.762C778.474 80.762 778.32 80.622 778.292 80.342L778.04 78.998C777.816 77.878 777.284 77.108 776.444 76.688C775.632 76.24 774.652 76.016 773.504 76.016C772.132 76.016 771.012 76.31 770.144 76.898C769.304 77.486 768.884 78.27 768.884 79.25C768.884 79.782 769.01 80.23 769.262 80.594C769.514 80.93 770.018 81.266 770.774 81.602C771.558 81.938 772.72 82.372 774.26 82.904ZM793.277 95.294C791.345 95.294 789.889 94.762 788.909 93.698C787.957 92.606 787.481 90.996 787.481 88.868V74.756L787.565 74.336V70.304C787.565 70.052 787.705 69.884 787.985 69.8C788.265 69.744 788.573 69.702 788.909 69.674C789.245 69.618 789.595 69.576 789.959 69.548C790.323 69.492 790.659 69.464 790.967 69.464C791.219 69.464 791.345 69.604 791.345 69.884V88.784C791.345 90.184 791.667 91.192 792.311 91.808C792.955 92.424 794.005 92.732 795.461 92.732C795.909 92.732 796.371 92.704 796.847 92.648C797.351 92.592 797.883 92.494 798.443 92.354C798.695 92.298 798.835 92.41 798.863 92.69L798.905 93.236C798.933 93.46 798.835 93.67 798.611 93.866C798.163 94.146 797.631 94.398 797.015 94.622C796.399 94.818 795.769 94.972 795.125 95.084C794.481 95.224 793.865 95.294 793.277 95.294ZM784.835 76.394C784.611 76.394 784.513 76.254 784.541 75.974L784.709 75.092C784.765 74.84 784.933 74.7 785.213 74.672L787.565 74.336H796.217L798.821 74.21C799.073 74.21 799.199 74.35 799.199 74.63C799.227 74.854 799.227 75.092 799.199 75.344C799.199 75.568 799.171 75.792 799.115 76.016C799.031 76.268 798.863 76.394 798.611 76.394H784.835ZM807.41 95.336C805.73 95.336 804.358 94.846 803.294 93.866C802.23 92.886 801.698 91.626 801.698 90.086C801.698 88.35 802.314 87.006 803.546 86.054C804.806 85.102 806.752 84.472 809.384 84.164L815.222 83.45L815.138 85.34L810.14 86.012C808.46 86.264 807.242 86.67 806.486 87.23C805.758 87.79 805.394 88.588 805.394 89.624C805.394 90.52 805.688 91.234 806.276 91.766C806.892 92.298 807.718 92.564 808.754 92.564C809.818 92.564 810.756 92.396 811.568 92.06C812.408 91.696 813.108 91.29 813.668 90.842C814.228 90.394 814.62 90.016 814.844 89.708L815.348 90.254C815.264 90.702 814.998 91.22 814.55 91.808C814.13 92.368 813.556 92.928 812.828 93.488C812.128 94.02 811.316 94.468 810.392 94.832C809.468 95.168 808.474 95.336 807.41 95.336ZM814.76 81.224C814.76 79.656 814.354 78.452 813.542 77.612C812.73 76.744 811.582 76.31 810.098 76.31C809.37 76.31 808.712 76.394 808.124 76.562C807.536 76.702 807.032 77.01 806.612 77.486C806.22 77.934 805.926 78.62 805.73 79.544L805.436 81.014C805.352 81.266 805.184 81.392 804.932 81.392H804.47C804.19 81.392 804.036 81.252 804.008 80.972C803.84 80.188 803.672 79.418 803.504 78.662C803.364 77.878 803.224 77.108 803.084 76.352C803.028 76.128 803.126 75.946 803.378 75.806C804.106 75.47 805.086 75.092 806.318 74.672C807.578 74.224 808.978 74 810.518 74C813.038 74 815.012 74.63 816.44 75.89C817.896 77.15 818.624 78.872 818.624 81.056V88.196H814.76V81.224ZM818.624 88.196V93.824L817.826 92.522L821.438 93.362C821.69 93.446 821.816 93.614 821.816 93.866V94.37C821.816 94.622 821.676 94.762 821.396 94.79L819.17 95C817.91 95.112 816.972 95.14 816.356 95.084C815.74 95.056 815.334 94.874 815.138 94.538C814.942 94.202 814.844 93.684 814.844 92.984V90.842L814.76 90.506V88.196H818.624ZM827.656 95V81.728H831.52V95H827.656ZM839.878 77.654C839.878 77.906 839.738 78.032 839.458 78.032H837.106C836.77 78.032 836.448 78.06 836.14 78.116C835.86 78.144 835.552 78.228 835.216 78.368C834.404 78.704 833.634 79.152 832.906 79.712C832.178 80.244 831.576 80.846 831.1 81.518L830.974 80.3C831.198 79.572 831.562 78.844 832.066 78.116C832.57 77.388 833.158 76.716 833.83 76.1C834.53 75.456 835.272 74.952 836.056 74.588C836.868 74.196 837.666 74 838.45 74C839.402 74 839.878 74.14 839.878 74.42V77.654ZM825.136 95C824.884 95 824.758 94.86 824.758 94.58V94.16C824.758 93.88 824.898 93.726 825.178 93.698L826.816 93.32C827.208 93.236 827.446 93.138 827.53 93.026C827.614 92.914 827.656 92.662 827.656 92.27V87.44H831.52V92.312C831.52 92.676 831.562 92.914 831.646 93.026C831.758 93.138 832.01 93.222 832.402 93.278L835.006 93.74C835.258 93.768 835.384 93.922 835.384 94.202V94.622C835.384 94.874 835.244 95 834.964 95H825.136ZM827.656 81.728V75.596L828.412 76.856L824.8 76.268C824.548 76.24 824.422 76.086 824.422 75.806V75.302C824.422 75.078 824.562 74.924 824.842 74.84L830.176 74.042C830.568 73.986 830.848 74.014 831.016 74.126C831.184 74.21 831.268 74.434 831.268 74.798V78.956L831.52 79.67V81.728H827.656Z" fill="black"/>
</svg>
