<svg width="986" height="150" viewBox="0 0 986 150" fill="none" xmlns="http://www.w3.org/2000/svg">
<rect width="986" height="150" fill="#F5F5F5"/>
<rect width="986" height="150" fill="#87C780"/>
<path d="M447.833 95.336C444.753 95.336 442.051 94.678 439.727 93.362C437.403 92.018 435.583 90.156 434.267 87.776C432.979 85.368 432.335 82.582 432.335 79.418C432.335 76.254 432.979 73.482 434.267 71.102C435.583 68.722 437.403 66.86 439.727 65.516C442.079 64.172 444.781 63.5 447.833 63.5C449.709 63.5 451.277 63.668 452.537 64.004C453.825 64.312 454.973 64.662 455.981 65.054L457.535 65.348C457.815 65.376 458.011 65.432 458.123 65.516C458.263 65.6 458.361 65.754 458.417 65.978C458.501 66.202 458.557 66.552 458.585 67.028L459.089 73.58C459.117 73.804 458.991 73.958 458.711 74.042L457.955 74.168C457.703 74.196 457.535 74.084 457.451 73.832L455.981 69.548C455.869 69.24 455.743 68.988 455.603 68.792C455.491 68.596 455.309 68.4 455.057 68.204C454.105 67.532 452.999 67.028 451.739 66.692C450.507 66.356 449.163 66.188 447.707 66.188C445.495 66.188 443.577 66.734 441.953 67.826C440.329 68.89 439.069 70.416 438.173 72.404C437.305 74.364 436.871 76.702 436.871 79.418C436.871 82.106 437.305 84.444 438.173 86.432C439.069 88.42 440.329 89.96 441.953 91.052C443.577 92.144 445.495 92.69 447.707 92.69C449.191 92.69 450.549 92.522 451.781 92.186C453.041 91.85 454.133 91.346 455.057 90.674C455.337 90.45 455.533 90.24 455.645 90.044C455.785 89.848 455.911 89.596 456.023 89.288L457.451 85.004C457.535 84.724 457.717 84.626 457.997 84.71L458.753 84.836C459.005 84.864 459.117 85.018 459.089 85.298L458.543 92.396C458.515 92.648 458.459 92.858 458.375 93.026C458.319 93.166 458.179 93.278 457.955 93.362C457.759 93.446 457.437 93.53 456.989 93.614L455.981 93.824C454.973 94.188 453.825 94.538 452.537 94.874C451.277 95.182 449.709 95.336 447.833 95.336ZM474.392 95.336C472.32 95.336 470.5 94.902 468.932 94.034C467.364 93.138 466.146 91.892 465.278 90.296C464.438 88.7 464.018 86.838 464.018 84.71C464.018 82.554 464.438 80.678 465.278 79.082C466.146 77.458 467.364 76.212 468.932 75.344C470.5 74.448 472.32 74 474.392 74C476.52 74 478.354 74.448 479.894 75.344C481.462 76.212 482.68 77.458 483.548 79.082C484.416 80.678 484.85 82.554 484.85 84.71C484.85 86.838 484.416 88.7 483.548 90.296C482.68 91.892 481.462 93.138 479.894 94.034C478.354 94.902 476.52 95.336 474.392 95.336ZM474.476 92.858C476.492 92.858 478.046 92.144 479.138 90.716C480.258 89.288 480.818 87.3 480.818 84.752C480.818 83.1 480.538 81.658 479.978 80.426C479.418 79.194 478.648 78.228 477.668 77.528C476.716 76.828 475.596 76.478 474.308 76.478C472.32 76.478 470.78 77.192 469.688 78.62C468.596 80.02 468.05 81.994 468.05 84.542C468.05 87.034 468.638 89.05 469.814 90.59C471.018 92.102 472.572 92.858 474.476 92.858ZM507.176 81.35C507.176 79.978 506.826 78.942 506.126 78.242C505.426 77.514 504.39 77.15 503.018 77.15C501.814 77.15 500.568 77.472 499.28 78.116C497.992 78.732 496.788 79.6 495.668 80.72L495.29 79.712C496.046 78.592 496.942 77.612 497.978 76.772C499.014 75.904 500.12 75.232 501.296 74.756C502.472 74.252 503.648 74 504.824 74C506.896 74 508.45 74.574 509.486 75.722C510.522 76.87 511.04 78.578 511.04 80.846V95H507.176V81.35ZM492.182 95V81.728H496.046V95H492.182ZM489.662 95C489.41 95 489.284 94.86 489.284 94.58V94.16C489.284 93.88 489.424 93.726 489.704 93.698L491.342 93.32C491.734 93.236 491.972 93.138 492.056 93.026C492.14 92.914 492.182 92.662 492.182 92.27V87.44H496.046V92.312C496.046 92.676 496.088 92.914 496.172 93.026C496.284 93.138 496.536 93.222 496.928 93.278L499.532 93.74C499.784 93.768 499.91 93.922 499.91 94.202V94.622C499.91 94.874 499.77 95 499.49 95H489.662ZM504.656 95C504.404 95 504.278 94.86 504.278 94.58V94.16C504.278 93.88 504.418 93.726 504.698 93.698L506.336 93.32C506.728 93.236 506.966 93.138 507.05 93.026C507.134 92.914 507.176 92.662 507.176 92.27V87.44H511.04V92.312C511.04 92.676 511.082 92.914 511.166 93.026C511.278 93.138 511.53 93.222 511.922 93.278L514.526 93.74C514.778 93.768 514.904 93.922 514.904 94.202V94.622C514.904 94.874 514.764 95 514.484 95H504.656ZM492.182 81.728V75.596L492.938 76.856L489.326 76.268C489.074 76.24 488.948 76.086 488.948 75.806V75.302C488.948 75.078 489.088 74.924 489.368 74.84L494.702 74.042C495.094 73.986 495.374 74.014 495.542 74.126C495.71 74.21 495.794 74.434 495.794 74.798V78.956L496.046 79.67V81.728H492.182ZM525.642 95.294C523.71 95.294 522.254 94.762 521.274 93.698C520.322 92.606 519.846 90.996 519.846 88.868V74.756L519.93 74.336V70.304C519.93 70.052 520.07 69.884 520.35 69.8C520.63 69.744 520.938 69.702 521.274 69.674C521.61 69.618 521.96 69.576 522.324 69.548C522.688 69.492 523.024 69.464 523.332 69.464C523.584 69.464 523.71 69.604 523.71 69.884V88.784C523.71 90.184 524.032 91.192 524.676 91.808C525.32 92.424 526.37 92.732 527.826 92.732C528.274 92.732 528.736 92.704 529.212 92.648C529.716 92.592 530.248 92.494 530.808 92.354C531.06 92.298 531.2 92.41 531.228 92.69L531.27 93.236C531.298 93.46 531.2 93.67 530.976 93.866C530.528 94.146 529.996 94.398 529.38 94.622C528.764 94.818 528.134 94.972 527.49 95.084C526.846 95.224 526.23 95.294 525.642 95.294ZM517.2 76.394C516.976 76.394 516.878 76.254 516.906 75.974L517.074 75.092C517.13 74.84 517.298 74.7 517.578 74.672L519.93 74.336H528.582L531.186 74.21C531.438 74.21 531.564 74.35 531.564 74.63C531.592 74.854 531.592 75.092 531.564 75.344C531.564 75.568 531.536 75.792 531.48 76.016C531.396 76.268 531.228 76.394 530.976 76.394H517.2ZM539.775 95.336C538.095 95.336 536.723 94.846 535.659 93.866C534.595 92.886 534.063 91.626 534.063 90.086C534.063 88.35 534.679 87.006 535.911 86.054C537.171 85.102 539.117 84.472 541.749 84.164L547.587 83.45L547.503 85.34L542.505 86.012C540.825 86.264 539.607 86.67 538.851 87.23C538.123 87.79 537.759 88.588 537.759 89.624C537.759 90.52 538.053 91.234 538.641 91.766C539.257 92.298 540.083 92.564 541.119 92.564C542.183 92.564 543.121 92.396 543.933 92.06C544.773 91.696 545.473 91.29 546.033 90.842C546.593 90.394 546.985 90.016 547.209 89.708L547.713 90.254C547.629 90.702 547.363 91.22 546.915 91.808C546.495 92.368 545.921 92.928 545.193 93.488C544.493 94.02 543.681 94.468 542.757 94.832C541.833 95.168 540.839 95.336 539.775 95.336ZM547.125 81.224C547.125 79.656 546.719 78.452 545.907 77.612C545.095 76.744 543.947 76.31 542.463 76.31C541.735 76.31 541.077 76.394 540.489 76.562C539.901 76.702 539.397 77.01 538.977 77.486C538.585 77.934 538.291 78.62 538.095 79.544L537.801 81.014C537.717 81.266 537.549 81.392 537.297 81.392H536.835C536.555 81.392 536.401 81.252 536.373 80.972C536.205 80.188 536.037 79.418 535.869 78.662C535.729 77.878 535.589 77.108 535.449 76.352C535.393 76.128 535.491 75.946 535.743 75.806C536.471 75.47 537.451 75.092 538.683 74.672C539.943 74.224 541.343 74 542.883 74C545.403 74 547.377 74.63 548.805 75.89C550.261 77.15 550.989 78.872 550.989 81.056V88.196H547.125V81.224ZM550.989 88.196V93.824L550.191 92.522L553.803 93.362C554.055 93.446 554.181 93.614 554.181 93.866V94.37C554.181 94.622 554.041 94.762 553.761 94.79L551.535 95C550.275 95.112 549.337 95.14 548.721 95.084C548.105 95.056 547.699 94.874 547.503 94.538C547.307 94.202 547.209 93.684 547.209 92.984V90.842L547.125 90.506V88.196H550.989ZM564.935 95.294C563.003 95.294 561.547 94.762 560.567 93.698C559.615 92.606 559.139 90.996 559.139 88.868V74.756L559.223 74.336V70.304C559.223 70.052 559.363 69.884 559.643 69.8C559.923 69.744 560.231 69.702 560.567 69.674C560.903 69.618 561.253 69.576 561.617 69.548C561.981 69.492 562.317 69.464 562.625 69.464C562.877 69.464 563.003 69.604 563.003 69.884V88.784C563.003 90.184 563.325 91.192 563.969 91.808C564.613 92.424 565.663 92.732 567.119 92.732C567.567 92.732 568.029 92.704 568.505 92.648C569.009 92.592 569.541 92.494 570.101 92.354C570.353 92.298 570.493 92.41 570.521 92.69L570.563 93.236C570.591 93.46 570.493 93.67 570.269 93.866C569.821 94.146 569.289 94.398 568.673 94.622C568.057 94.818 567.427 94.972 566.783 95.084C566.139 95.224 565.523 95.294 564.935 95.294ZM556.493 76.394C556.269 76.394 556.171 76.254 556.199 75.974L556.367 75.092C556.423 74.84 556.591 74.7 556.871 74.672L559.223 74.336H567.875L570.479 74.21C570.731 74.21 570.857 74.35 570.857 74.63C570.885 74.854 570.885 75.092 570.857 75.344C570.857 75.568 570.829 75.792 570.773 76.016C570.689 76.268 570.521 76.394 570.269 76.394H556.493ZM584.15 95.336C582.078 95.336 580.258 94.902 578.69 94.034C577.122 93.138 575.904 91.892 575.036 90.296C574.196 88.7 573.776 86.838 573.776 84.71C573.776 82.554 574.196 80.678 575.036 79.082C575.904 77.458 577.122 76.212 578.69 75.344C580.258 74.448 582.078 74 584.15 74C586.278 74 588.112 74.448 589.652 75.344C591.22 76.212 592.438 77.458 593.306 79.082C594.174 80.678 594.608 82.554 594.608 84.71C594.608 86.838 594.174 88.7 593.306 90.296C592.438 91.892 591.22 93.138 589.652 94.034C588.112 94.902 586.278 95.336 584.15 95.336ZM584.234 92.858C586.25 92.858 587.804 92.144 588.896 90.716C590.016 89.288 590.576 87.3 590.576 84.752C590.576 83.1 590.296 81.658 589.736 80.426C589.176 79.194 588.406 78.228 587.426 77.528C586.474 76.828 585.354 76.478 584.066 76.478C582.078 76.478 580.538 77.192 579.446 78.62C578.354 80.02 577.808 81.994 577.808 84.542C577.808 87.034 578.396 89.05 579.572 90.59C580.776 92.102 582.33 92.858 584.234 92.858Z" fill="black"/>
</svg>
