<svg width="986" height="150" viewBox="0 0 986 150" fill="none" xmlns="http://www.w3.org/2000/svg">
<rect width="986" height="150" fill="#F5F5F5"/>
<rect width="986" height="150" fill="#87C780"/>
<path d="M265.394 95V63.836H269.51V95H265.394ZM265.394 77.654C267.466 77.766 269.538 77.864 271.61 77.948C273.71 78.004 275.796 78.032 277.868 78.032C279.94 78.032 282.012 78.004 284.084 77.948C286.184 77.864 288.27 77.766 290.342 77.654V80.006C288.27 80.118 286.184 80.216 284.084 80.3C282.012 80.356 279.94 80.384 277.868 80.384C275.796 80.384 273.71 80.356 271.61 80.3C269.538 80.216 267.466 80.118 265.394 80.006V77.654ZM286.226 95V63.836H290.342V95H286.226ZM281.732 95C281.48 95 281.354 94.86 281.354 94.58V94.034C281.354 93.754 281.494 93.6 281.774 93.572L285.386 92.942C285.722 92.886 285.946 92.788 286.058 92.648C286.17 92.48 286.226 92.228 286.226 91.892V85.97H290.342V91.934C290.342 92.27 290.398 92.508 290.51 92.648C290.65 92.788 290.888 92.886 291.224 92.942L294.962 93.572C295.214 93.656 295.34 93.824 295.34 94.076V94.622C295.34 94.874 295.2 95 294.92 95H281.732ZM260.9 95C260.648 95 260.522 94.86 260.522 94.58V94.034C260.522 93.754 260.662 93.6 260.942 93.572L264.554 92.942C264.89 92.886 265.114 92.788 265.226 92.648C265.338 92.48 265.394 92.228 265.394 91.892V85.97H269.51V91.934C269.51 92.27 269.566 92.508 269.678 92.648C269.818 92.788 270.056 92.886 270.392 92.942L274.13 93.572C274.382 93.656 274.508 93.824 274.508 94.076V94.622C274.508 94.874 274.368 95 274.088 95H260.9ZM281.354 64.256C281.354 63.976 281.48 63.836 281.732 63.836H294.92C295.2 63.836 295.34 63.962 295.34 64.214V64.76C295.34 65.012 295.214 65.18 294.962 65.264L291.224 65.894C290.888 65.95 290.65 66.048 290.51 66.188C290.398 66.328 290.342 66.566 290.342 66.902V72.866H286.226V66.944C286.226 66.608 286.17 66.37 286.058 66.23C285.946 66.062 285.722 65.95 285.386 65.894L281.774 65.264C281.494 65.236 281.354 65.082 281.354 64.802V64.256ZM260.522 64.256C260.522 63.976 260.648 63.836 260.9 63.836H274.088C274.368 63.836 274.508 63.962 274.508 64.214V64.76C274.508 65.012 274.382 65.18 274.13 65.264L270.392 65.894C270.056 65.95 269.818 66.048 269.678 66.188C269.566 66.328 269.51 66.566 269.51 66.902V72.866H265.394V66.944C265.394 66.608 265.338 66.37 265.226 66.23C265.114 66.062 264.89 65.95 264.554 65.894L260.942 65.264C260.662 65.236 260.522 65.082 260.522 64.802V64.256ZM308.607 95.336C306.535 95.336 304.715 94.902 303.147 94.034C301.579 93.138 300.361 91.892 299.493 90.296C298.653 88.7 298.233 86.838 298.233 84.71C298.233 82.554 298.653 80.678 299.493 79.082C300.361 77.458 301.579 76.212 303.147 75.344C304.715 74.448 306.535 74 308.607 74C310.735 74 312.569 74.448 314.109 75.344C315.677 76.212 316.895 77.458 317.763 79.082C318.631 80.678 319.065 82.554 319.065 84.71C319.065 86.838 318.631 88.7 317.763 90.296C316.895 91.892 315.677 93.138 314.109 94.034C312.569 94.902 310.735 95.336 308.607 95.336ZM308.691 92.858C310.707 92.858 312.261 92.144 313.353 90.716C314.473 89.288 315.033 87.3 315.033 84.752C315.033 83.1 314.753 81.658 314.193 80.426C313.633 79.194 312.863 78.228 311.883 77.528C310.931 76.828 309.811 76.478 308.523 76.478C306.535 76.478 304.995 77.192 303.903 78.62C302.811 80.02 302.265 81.994 302.265 84.542C302.265 87.034 302.853 89.05 304.029 90.59C305.233 92.102 306.787 92.858 308.691 92.858ZM326.396 95V81.728H330.26V95H326.396ZM338.618 77.654C338.618 77.906 338.478 78.032 338.198 78.032H335.846C335.51 78.032 335.188 78.06 334.88 78.116C334.6 78.144 334.292 78.228 333.956 78.368C333.144 78.704 332.374 79.152 331.646 79.712C330.918 80.244 330.316 80.846 329.84 81.518L329.714 80.3C329.938 79.572 330.302 78.844 330.806 78.116C331.31 77.388 331.898 76.716 332.57 76.1C333.27 75.456 334.012 74.952 334.796 74.588C335.608 74.196 336.406 74 337.19 74C338.142 74 338.618 74.14 338.618 74.42V77.654ZM323.876 95C323.624 95 323.498 94.86 323.498 94.58V94.16C323.498 93.88 323.638 93.726 323.918 93.698L325.556 93.32C325.948 93.236 326.186 93.138 326.27 93.026C326.354 92.914 326.396 92.662 326.396 92.27V87.44H330.26V92.312C330.26 92.676 330.302 92.914 330.386 93.026C330.498 93.138 330.75 93.222 331.142 93.278L333.746 93.74C333.998 93.768 334.124 93.922 334.124 94.202V94.622C334.124 94.874 333.984 95 333.704 95H323.876ZM326.396 81.728V75.596L327.152 76.856L323.54 76.268C323.288 76.24 323.162 76.086 323.162 75.806V75.302C323.162 75.078 323.302 74.924 323.582 74.84L328.916 74.042C329.308 73.986 329.588 74.014 329.756 74.126C329.924 74.21 330.008 74.434 330.008 74.798V78.956L330.26 79.67V81.728H326.396ZM347.001 95.336C345.321 95.336 343.949 94.846 342.885 93.866C341.821 92.886 341.289 91.626 341.289 90.086C341.289 88.35 341.905 87.006 343.137 86.054C344.397 85.102 346.343 84.472 348.975 84.164L354.813 83.45L354.729 85.34L349.731 86.012C348.051 86.264 346.833 86.67 346.077 87.23C345.349 87.79 344.985 88.588 344.985 89.624C344.985 90.52 345.279 91.234 345.867 91.766C346.483 92.298 347.309 92.564 348.345 92.564C349.409 92.564 350.347 92.396 351.159 92.06C351.999 91.696 352.699 91.29 353.259 90.842C353.819 90.394 354.211 90.016 354.435 89.708L354.939 90.254C354.855 90.702 354.589 91.22 354.141 91.808C353.721 92.368 353.147 92.928 352.419 93.488C351.719 94.02 350.907 94.468 349.983 94.832C349.059 95.168 348.065 95.336 347.001 95.336ZM354.351 81.224C354.351 79.656 353.945 78.452 353.133 77.612C352.321 76.744 351.173 76.31 349.689 76.31C348.961 76.31 348.303 76.394 347.715 76.562C347.127 76.702 346.623 77.01 346.203 77.486C345.811 77.934 345.517 78.62 345.321 79.544L345.027 81.014C344.943 81.266 344.775 81.392 344.523 81.392H344.061C343.781 81.392 343.627 81.252 343.599 80.972C343.431 80.188 343.263 79.418 343.095 78.662C342.955 77.878 342.815 77.108 342.675 76.352C342.619 76.128 342.717 75.946 342.969 75.806C343.697 75.47 344.677 75.092 345.909 74.672C347.169 74.224 348.569 74 350.109 74C352.629 74 354.603 74.63 356.031 75.89C357.487 77.15 358.215 78.872 358.215 81.056V88.196H354.351V81.224ZM358.215 88.196V93.824L357.417 92.522L361.029 93.362C361.281 93.446 361.407 93.614 361.407 93.866V94.37C361.407 94.622 361.267 94.762 360.987 94.79L358.761 95C357.501 95.112 356.563 95.14 355.947 95.084C355.331 95.056 354.925 94.874 354.729 94.538C354.533 94.202 354.435 93.684 354.435 92.984V90.842L354.351 90.506V88.196H358.215ZM348.639 71.522C348.471 71.69 348.261 71.704 348.009 71.564L347.505 71.228C347.253 71.088 347.225 70.92 347.421 70.724C348.401 69.576 349.311 68.4 350.151 67.196C350.991 65.992 351.775 64.788 352.503 63.584C352.671 63.36 352.881 63.262 353.133 63.29C353.497 63.346 353.875 63.458 354.267 63.626C354.687 63.794 355.065 63.976 355.401 64.172C355.625 64.312 355.765 64.438 355.821 64.55C355.905 64.662 355.891 64.816 355.779 65.012C355.695 65.18 355.499 65.432 355.191 65.768C354.211 66.776 353.161 67.756 352.041 68.708C350.921 69.66 349.787 70.598 348.639 71.522ZM367.248 95V81.728H371.112V95H367.248ZM379.47 77.654C379.47 77.906 379.33 78.032 379.05 78.032H376.698C376.362 78.032 376.04 78.06 375.732 78.116C375.452 78.144 375.144 78.228 374.808 78.368C373.996 78.704 373.226 79.152 372.498 79.712C371.77 80.244 371.168 80.846 370.692 81.518L370.566 80.3C370.79 79.572 371.154 78.844 371.658 78.116C372.162 77.388 372.75 76.716 373.422 76.1C374.122 75.456 374.864 74.952 375.648 74.588C376.46 74.196 377.258 74 378.042 74C378.994 74 379.47 74.14 379.47 74.42V77.654ZM364.728 95C364.476 95 364.35 94.86 364.35 94.58V94.16C364.35 93.88 364.49 93.726 364.77 93.698L366.408 93.32C366.8 93.236 367.038 93.138 367.122 93.026C367.206 92.914 367.248 92.662 367.248 92.27V87.44H371.112V92.312C371.112 92.676 371.154 92.914 371.238 93.026C371.35 93.138 371.602 93.222 371.994 93.278L374.598 93.74C374.85 93.768 374.976 93.922 374.976 94.202V94.622C374.976 94.874 374.836 95 374.556 95H364.728ZM367.248 81.728V75.596L368.004 76.856L364.392 76.268C364.14 76.24 364.014 76.086 364.014 75.806V75.302C364.014 75.078 364.154 74.924 364.434 74.84L369.768 74.042C370.16 73.986 370.44 74.014 370.608 74.126C370.776 74.21 370.86 74.434 370.86 74.798V78.956L371.112 79.67V81.728H367.248ZM385.459 95V81.686H389.323V95H385.459ZM382.939 95C382.687 95 382.561 94.86 382.561 94.58V94.16C382.561 93.88 382.701 93.726 382.981 93.698L384.619 93.32C385.011 93.236 385.249 93.138 385.333 93.026C385.417 92.914 385.459 92.662 385.459 92.27V87.44H389.323V92.312C389.323 92.676 389.365 92.914 389.449 93.026C389.561 93.138 389.813 93.222 390.205 93.278L392.809 93.74C393.061 93.768 393.187 93.922 393.187 94.202V94.622C393.187 94.874 393.047 95 392.767 95H382.939ZM385.459 81.686V75.554L386.215 76.814L382.603 76.226C382.351 76.198 382.225 76.044 382.225 75.764V75.26C382.225 75.008 382.365 74.868 382.645 74.84L388.231 74C388.623 73.944 388.903 73.972 389.071 74.084C389.239 74.168 389.323 74.392 389.323 74.756V81.686H385.459ZM387.433 70.304C386.733 70.304 386.131 70.08 385.627 69.632C385.123 69.184 384.871 68.624 384.871 67.952C384.871 67.28 385.123 66.72 385.627 66.272C386.131 65.824 386.733 65.6 387.433 65.6C388.161 65.6 388.763 65.824 389.239 66.272C389.743 66.72 389.995 67.28 389.995 67.952C389.995 68.624 389.743 69.184 389.239 69.632C388.763 70.08 388.161 70.304 387.433 70.304ZM406.921 95.336C404.849 95.336 403.029 94.902 401.461 94.034C399.893 93.138 398.675 91.892 397.807 90.296C396.967 88.7 396.547 86.838 396.547 84.71C396.547 82.554 396.967 80.678 397.807 79.082C398.675 77.458 399.893 76.212 401.461 75.344C403.029 74.448 404.849 74 406.921 74C409.049 74 410.883 74.448 412.423 75.344C413.991 76.212 415.209 77.458 416.077 79.082C416.945 80.678 417.379 82.554 417.379 84.71C417.379 86.838 416.945 88.7 416.077 90.296C415.209 91.892 413.991 93.138 412.423 94.034C410.883 94.902 409.049 95.336 406.921 95.336ZM407.005 92.858C409.021 92.858 410.575 92.144 411.667 90.716C412.787 89.288 413.347 87.3 413.347 84.752C413.347 83.1 413.067 81.658 412.507 80.426C411.947 79.194 411.177 78.228 410.197 77.528C409.245 76.828 408.125 76.478 406.837 76.478C404.849 76.478 403.309 77.192 402.217 78.62C401.125 80.02 400.579 81.994 400.579 84.542C400.579 87.034 401.167 89.05 402.343 90.59C403.547 92.102 405.101 92.858 407.005 92.858ZM448.191 88.196V69.926H452.055V88.196H448.191ZM448.863 79.124C448.107 78.228 447.225 77.57 446.217 77.15C445.237 76.73 444.131 76.52 442.899 76.52C440.771 76.52 439.119 77.248 437.943 78.704C436.767 80.16 436.179 82.204 436.179 84.836C436.179 87.16 436.669 88.98 437.649 90.296C438.657 91.612 440.029 92.27 441.765 92.27C443.025 92.27 444.229 91.962 445.377 91.346C446.553 90.73 447.589 89.862 448.485 88.742L448.905 89.708C447.925 91.444 446.679 92.816 445.167 93.824C443.683 94.832 442.157 95.336 440.589 95.336C438.881 95.336 437.397 94.916 436.137 94.076C434.877 93.236 433.911 92.046 433.239 90.506C432.567 88.966 432.231 87.132 432.231 85.004C432.231 82.764 432.623 80.818 433.407 79.166C434.219 77.514 435.353 76.24 436.809 75.344C438.265 74.42 439.959 73.958 441.891 73.958C443.655 73.958 445.223 74.336 446.595 75.092C447.967 75.848 449.073 76.954 449.913 78.41L448.863 79.124ZM448.191 71.144V65.012L448.947 66.272L445.335 65.684C445.083 65.656 444.957 65.502 444.957 65.222V64.718C444.957 64.466 445.097 64.326 445.377 64.298L450.963 63.458C451.355 63.402 451.635 63.43 451.803 63.542C451.971 63.626 452.055 63.85 452.055 64.214V71.144H448.191ZM452.055 88.196V93.824L451.257 92.522L454.869 93.362C455.121 93.446 455.247 93.614 455.247 93.866V94.37C455.247 94.622 455.107 94.762 454.827 94.79L448.989 95.336C448.793 95.364 448.625 95.322 448.485 95.21C448.373 95.126 448.317 94.972 448.317 94.748V89.96L448.191 89.582V88.196H452.055ZM468.803 95.336C466.983 95.336 465.317 94.916 463.805 94.076C462.293 93.208 461.089 91.976 460.193 90.38C459.325 88.756 458.891 86.81 458.891 84.542C458.891 82.246 459.353 80.328 460.277 78.788C461.201 77.22 462.433 76.03 463.973 75.218C465.513 74.406 467.207 74 469.055 74C470.623 74 472.051 74.378 473.339 75.134C474.655 75.862 475.705 76.912 476.489 78.284C477.273 79.656 477.665 81.294 477.665 83.198C477.665 83.31 477.665 83.45 477.665 83.618C477.665 83.786 477.651 83.94 477.623 84.08C477.539 84.332 477.371 84.458 477.119 84.458H462.209V82.526H475.103L474.137 83.45C474.137 83.31 474.137 83.184 474.137 83.072C474.137 82.932 474.137 82.806 474.137 82.694C474.137 81.462 473.899 80.37 473.423 79.418C472.947 78.466 472.289 77.71 471.449 77.15C470.637 76.59 469.699 76.31 468.635 76.31C466.787 76.31 465.345 77.01 464.309 78.41C463.301 79.782 462.797 81.756 462.797 84.332C462.797 85.928 463.105 87.37 463.721 88.658C464.337 89.946 465.177 90.968 466.241 91.724C467.305 92.452 468.509 92.816 469.853 92.816C472.037 92.816 473.843 92.2 475.271 90.968C475.467 90.8 475.635 90.828 475.775 91.052L476.153 91.598C476.293 91.794 476.279 92.018 476.111 92.27C475.243 93.222 474.165 93.978 472.877 94.538C471.617 95.07 470.259 95.336 468.803 95.336ZM490.645 95C490.393 95 490.267 94.86 490.267 94.58V94.034C490.267 93.754 490.407 93.6 490.687 93.572L493.291 92.984C493.599 92.9 493.851 92.774 494.047 92.606C494.271 92.438 494.439 92.186 494.551 91.85L505.765 64.34C505.849 64.088 506.031 63.948 506.311 63.92L508.075 63.542C508.327 63.458 508.481 63.57 508.537 63.878L508.999 65.936L520.339 91.934C520.479 92.242 520.647 92.48 520.843 92.648C521.067 92.816 521.347 92.942 521.683 93.026L523.993 93.572C524.245 93.656 524.371 93.824 524.371 94.076V94.622C524.371 94.874 524.231 95 523.951 95H510.763C510.511 95 510.385 94.86 510.385 94.58V94.034C510.385 93.81 510.525 93.656 510.805 93.572L513.913 93.11C514.753 92.97 515.243 92.746 515.383 92.438C515.551 92.13 515.467 91.584 515.131 90.8L505.177 67.406L507.697 65.936L497.911 90.8C497.603 91.612 497.547 92.172 497.743 92.48C497.939 92.76 498.443 92.97 499.255 93.11L502.405 93.614C502.657 93.642 502.783 93.796 502.783 94.076V94.622C502.783 94.874 502.643 95 502.363 95H490.645ZM499.633 81.854C502.125 81.966 504.603 82.008 507.067 81.98C509.531 81.952 511.995 81.882 514.459 81.77V84.164C511.995 84.276 509.531 84.346 507.067 84.374C504.603 84.374 502.125 84.332 499.633 84.248V81.854ZM533.476 95.294C531.544 95.294 530.088 94.762 529.108 93.698C528.156 92.606 527.68 90.996 527.68 88.868V74.756L527.764 74.336V70.304C527.764 70.052 527.904 69.884 528.184 69.8C528.464 69.744 528.772 69.702 529.108 69.674C529.444 69.618 529.794 69.576 530.158 69.548C530.522 69.492 530.858 69.464 531.166 69.464C531.418 69.464 531.544 69.604 531.544 69.884V88.784C531.544 90.184 531.866 91.192 532.51 91.808C533.154 92.424 534.204 92.732 535.66 92.732C536.108 92.732 536.57 92.704 537.046 92.648C537.55 92.592 538.082 92.494 538.642 92.354C538.894 92.298 539.034 92.41 539.062 92.69L539.104 93.236C539.132 93.46 539.034 93.67 538.81 93.866C538.362 94.146 537.83 94.398 537.214 94.622C536.598 94.818 535.968 94.972 535.324 95.084C534.68 95.224 534.064 95.294 533.476 95.294ZM525.034 76.394C524.81 76.394 524.712 76.254 524.74 75.974L524.908 75.092C524.964 74.84 525.132 74.7 525.412 74.672L527.764 74.336H536.416L539.02 74.21C539.272 74.21 539.398 74.35 539.398 74.63C539.426 74.854 539.426 75.092 539.398 75.344C539.398 75.568 539.37 75.792 539.314 76.016C539.23 76.268 539.062 76.394 538.81 76.394H525.034ZM552.229 95.336C550.409 95.336 548.743 94.916 547.231 94.076C545.719 93.208 544.515 91.976 543.619 90.38C542.751 88.756 542.317 86.81 542.317 84.542C542.317 82.246 542.779 80.328 543.703 78.788C544.627 77.22 545.859 76.03 547.399 75.218C548.939 74.406 550.633 74 552.481 74C554.049 74 555.477 74.378 556.765 75.134C558.081 75.862 559.131 76.912 559.915 78.284C560.699 79.656 561.091 81.294 561.091 83.198C561.091 83.31 561.091 83.45 561.091 83.618C561.091 83.786 561.077 83.94 561.049 84.08C560.965 84.332 560.797 84.458 560.545 84.458H545.635V82.526H558.529L557.563 83.45C557.563 83.31 557.563 83.184 557.563 83.072C557.563 82.932 557.563 82.806 557.563 82.694C557.563 81.462 557.325 80.37 556.849 79.418C556.373 78.466 555.715 77.71 554.875 77.15C554.063 76.59 553.125 76.31 552.061 76.31C550.213 76.31 548.771 77.01 547.735 78.41C546.727 79.782 546.223 81.756 546.223 84.332C546.223 85.928 546.531 87.37 547.147 88.658C547.763 89.946 548.603 90.968 549.667 91.724C550.731 92.452 551.935 92.816 553.279 92.816C555.463 92.816 557.269 92.2 558.697 90.968C558.893 90.8 559.061 90.828 559.201 91.052L559.579 91.598C559.719 91.794 559.705 92.018 559.537 92.27C558.669 93.222 557.591 93.978 556.303 94.538C555.043 95.07 553.685 95.336 552.229 95.336ZM582.972 81.35C582.972 79.978 582.622 78.942 581.922 78.242C581.222 77.514 580.186 77.15 578.814 77.15C577.61 77.15 576.364 77.472 575.076 78.116C573.788 78.732 572.584 79.6 571.464 80.72L571.086 79.712C571.842 78.592 572.738 77.612 573.774 76.772C574.81 75.904 575.916 75.232 577.092 74.756C578.268 74.252 579.444 74 580.62 74C582.692 74 584.246 74.574 585.282 75.722C586.318 76.87 586.836 78.578 586.836 80.846V95H582.972V81.35ZM567.978 95V81.728H571.842V95H567.978ZM565.458 95C565.206 95 565.08 94.86 565.08 94.58V94.16C565.08 93.88 565.22 93.726 565.5 93.698L567.138 93.32C567.53 93.236 567.768 93.138 567.852 93.026C567.936 92.914 567.978 92.662 567.978 92.27V87.44H571.842V92.312C571.842 92.676 571.884 92.914 571.968 93.026C572.08 93.138 572.332 93.222 572.724 93.278L575.328 93.74C575.58 93.768 575.706 93.922 575.706 94.202V94.622C575.706 94.874 575.566 95 575.286 95H565.458ZM580.452 95C580.2 95 580.074 94.86 580.074 94.58V94.16C580.074 93.88 580.214 93.726 580.494 93.698L582.132 93.32C582.524 93.236 582.762 93.138 582.846 93.026C582.93 92.914 582.972 92.662 582.972 92.27V87.44H586.836V92.312C586.836 92.676 586.878 92.914 586.962 93.026C587.074 93.138 587.326 93.222 587.718 93.278L590.322 93.74C590.574 93.768 590.7 93.922 590.7 94.202V94.622C590.7 94.874 590.56 95 590.28 95H580.452ZM567.978 81.728V75.596L568.734 76.856L565.122 76.268C564.87 76.24 564.744 76.086 564.744 75.806V75.302C564.744 75.078 564.884 74.924 565.164 74.84L570.498 74.042C570.89 73.986 571.17 74.014 571.338 74.126C571.506 74.21 571.59 74.434 571.59 74.798V78.956L571.842 79.67V81.728H567.978ZM609.587 88.196V69.926H613.451V88.196H609.587ZM610.259 79.124C609.503 78.228 608.621 77.57 607.613 77.15C606.633 76.73 605.527 76.52 604.295 76.52C602.167 76.52 600.515 77.248 599.339 78.704C598.163 80.16 597.575 82.204 597.575 84.836C597.575 87.16 598.065 88.98 599.045 90.296C600.053 91.612 601.425 92.27 603.161 92.27C604.421 92.27 605.625 91.962 606.773 91.346C607.949 90.73 608.985 89.862 609.881 88.742L610.301 89.708C609.321 91.444 608.075 92.816 606.563 93.824C605.079 94.832 603.553 95.336 601.985 95.336C600.277 95.336 598.793 94.916 597.533 94.076C596.273 93.236 595.307 92.046 594.635 90.506C593.963 88.966 593.627 87.132 593.627 85.004C593.627 82.764 594.019 80.818 594.803 79.166C595.615 77.514 596.749 76.24 598.205 75.344C599.661 74.42 601.355 73.958 603.287 73.958C605.051 73.958 606.619 74.336 607.991 75.092C609.363 75.848 610.469 76.954 611.309 78.41L610.259 79.124ZM609.587 71.144V65.012L610.343 66.272L606.731 65.684C606.479 65.656 606.353 65.502 606.353 65.222V64.718C606.353 64.466 606.493 64.326 606.773 64.298L612.359 63.458C612.751 63.402 613.031 63.43 613.199 63.542C613.367 63.626 613.451 63.85 613.451 64.214V71.144H609.587ZM613.451 88.196V93.824L612.653 92.522L616.265 93.362C616.517 93.446 616.643 93.614 616.643 93.866V94.37C616.643 94.622 616.503 94.762 616.223 94.79L610.385 95.336C610.189 95.364 610.021 95.322 609.881 95.21C609.769 95.126 609.713 94.972 609.713 94.748V89.96L609.587 89.582V88.196H613.451ZM623.186 95V81.686H627.05V95H623.186ZM620.666 95C620.414 95 620.288 94.86 620.288 94.58V94.16C620.288 93.88 620.428 93.726 620.708 93.698L622.346 93.32C622.738 93.236 622.976 93.138 623.06 93.026C623.144 92.914 623.186 92.662 623.186 92.27V87.44H627.05V92.312C627.05 92.676 627.092 92.914 627.176 93.026C627.288 93.138 627.54 93.222 627.932 93.278L630.536 93.74C630.788 93.768 630.914 93.922 630.914 94.202V94.622C630.914 94.874 630.774 95 630.494 95H620.666ZM623.186 81.686V75.554L623.942 76.814L620.33 76.226C620.078 76.198 619.952 76.044 619.952 75.764V75.26C619.952 75.008 620.092 74.868 620.372 74.84L625.958 74C626.35 73.944 626.63 73.972 626.798 74.084C626.966 74.168 627.05 74.392 627.05 74.756V81.686H623.186ZM625.16 70.304C624.46 70.304 623.858 70.08 623.354 69.632C622.85 69.184 622.598 68.624 622.598 67.952C622.598 67.28 622.85 66.72 623.354 66.272C623.858 65.824 624.46 65.6 625.16 65.6C625.888 65.6 626.49 65.824 626.966 66.272C627.47 66.72 627.722 67.28 627.722 67.952C627.722 68.624 627.47 69.184 626.966 69.632C626.49 70.08 625.888 70.304 625.16 70.304ZM662.204 95C661.952 95 661.826 94.86 661.826 94.58V94.16C661.826 93.88 661.966 93.726 662.246 93.698L664.43 93.32C664.822 93.236 665.06 93.138 665.144 93.026C665.228 92.914 665.27 92.662 665.27 92.27V81.35C665.27 79.978 664.948 78.942 664.304 78.242C663.688 77.514 662.778 77.15 661.574 77.15C659.25 77.15 656.968 78.34 654.728 80.72L654.35 79.712C655.022 78.592 655.848 77.612 656.828 76.772C657.808 75.904 658.858 75.232 659.978 74.756C661.098 74.252 662.218 74 663.338 74C665.242 74 666.684 74.574 667.664 75.722C668.644 76.87 669.134 78.578 669.134 80.846V92.312C669.134 92.676 669.176 92.914 669.26 93.026C669.372 93.138 669.624 93.222 670.016 93.278L672.62 93.74C672.872 93.768 672.998 93.922 672.998 94.202V94.622C672.998 94.874 672.858 95 672.578 95H662.204ZM634.61 95C634.358 95 634.232 94.86 634.232 94.58V94.16C634.232 93.88 634.372 93.726 634.652 93.698L636.332 93.32C636.724 93.236 636.962 93.138 637.046 93.026C637.13 92.914 637.172 92.662 637.172 92.27V81.728H641.036V92.312C641.036 92.676 641.078 92.914 641.162 93.026C641.274 93.138 641.526 93.236 641.918 93.32L644.06 93.698C644.312 93.782 644.438 93.95 644.438 94.202V94.622C644.438 94.874 644.298 95 644.018 95H634.61ZM648.386 95C648.134 95 648.008 94.86 648.008 94.58V94.16C648.008 93.88 648.148 93.726 648.428 93.698L650.276 93.32C650.668 93.236 650.906 93.138 650.99 93.026C651.074 92.914 651.116 92.662 651.116 92.27V81.35C651.116 79.978 650.808 78.942 650.192 78.242C649.576 77.514 648.666 77.15 647.462 77.15C645.166 77.15 642.87 78.34 640.574 80.72L640.196 79.712C641.26 78.032 642.618 76.66 644.27 75.596C645.922 74.532 647.588 74 649.268 74C651.172 74 652.6 74.588 653.552 75.764C654.504 76.912 654.98 78.606 654.98 80.846V92.312C654.98 92.676 655.022 92.914 655.106 93.026C655.218 93.138 655.47 93.236 655.862 93.32L657.71 93.698C657.962 93.782 658.088 93.95 658.088 94.202V94.622C658.088 94.874 657.948 95 657.668 95H648.386ZM637.172 81.728V75.596L637.928 76.856L634.316 76.268C634.064 76.24 633.938 76.086 633.938 75.806V75.302C633.938 75.078 634.078 74.924 634.358 74.84L639.692 74.042C640.084 73.986 640.364 74.014 640.532 74.126C640.7 74.21 640.784 74.434 640.784 74.798V78.956L641.036 79.67V81.728H637.172ZM685.858 95.336C684.038 95.336 682.372 94.916 680.86 94.076C679.348 93.208 678.144 91.976 677.248 90.38C676.38 88.756 675.946 86.81 675.946 84.542C675.946 82.246 676.408 80.328 677.332 78.788C678.256 77.22 679.488 76.03 681.028 75.218C682.568 74.406 684.262 74 686.11 74C687.678 74 689.106 74.378 690.394 75.134C691.71 75.862 692.76 76.912 693.544 78.284C694.328 79.656 694.72 81.294 694.72 83.198C694.72 83.31 694.72 83.45 694.72 83.618C694.72 83.786 694.706 83.94 694.678 84.08C694.594 84.332 694.426 84.458 694.174 84.458H679.264V82.526H692.158L691.192 83.45C691.192 83.31 691.192 83.184 691.192 83.072C691.192 82.932 691.192 82.806 691.192 82.694C691.192 81.462 690.954 80.37 690.478 79.418C690.002 78.466 689.344 77.71 688.504 77.15C687.692 76.59 686.754 76.31 685.69 76.31C683.842 76.31 682.4 77.01 681.364 78.41C680.356 79.782 679.852 81.756 679.852 84.332C679.852 85.928 680.16 87.37 680.776 88.658C681.392 89.946 682.232 90.968 683.296 91.724C684.36 92.452 685.564 92.816 686.908 92.816C689.092 92.816 690.898 92.2 692.326 90.968C692.522 90.8 692.69 90.828 692.83 91.052L693.208 91.598C693.348 91.794 693.334 92.018 693.166 92.27C692.298 93.222 691.22 93.978 689.932 94.538C688.672 95.07 687.314 95.336 685.858 95.336ZM716.601 81.35C716.601 79.978 716.251 78.942 715.551 78.242C714.851 77.514 713.815 77.15 712.443 77.15C711.239 77.15 709.993 77.472 708.705 78.116C707.417 78.732 706.213 79.6 705.093 80.72L704.715 79.712C705.471 78.592 706.367 77.612 707.403 76.772C708.439 75.904 709.545 75.232 710.721 74.756C711.897 74.252 713.073 74 714.249 74C716.321 74 717.875 74.574 718.911 75.722C719.947 76.87 720.465 78.578 720.465 80.846V95H716.601V81.35ZM701.607 95V81.728H705.471V95H701.607ZM699.087 95C698.835 95 698.709 94.86 698.709 94.58V94.16C698.709 93.88 698.849 93.726 699.129 93.698L700.767 93.32C701.159 93.236 701.397 93.138 701.481 93.026C701.565 92.914 701.607 92.662 701.607 92.27V87.44H705.471V92.312C705.471 92.676 705.513 92.914 705.597 93.026C705.709 93.138 705.961 93.222 706.353 93.278L708.957 93.74C709.209 93.768 709.335 93.922 709.335 94.202V94.622C709.335 94.874 709.195 95 708.915 95H699.087ZM714.081 95C713.829 95 713.703 94.86 713.703 94.58V94.16C713.703 93.88 713.843 93.726 714.123 93.698L715.761 93.32C716.153 93.236 716.391 93.138 716.475 93.026C716.559 92.914 716.601 92.662 716.601 92.27V87.44H720.465V92.312C720.465 92.676 720.507 92.914 720.591 93.026C720.703 93.138 720.955 93.222 721.347 93.278L723.951 93.74C724.203 93.768 724.329 93.922 724.329 94.202V94.622C724.329 94.874 724.189 95 723.909 95H714.081ZM701.607 81.728V75.596L702.363 76.856L698.751 76.268C698.499 76.24 698.373 76.086 698.373 75.806V75.302C698.373 75.078 698.513 74.924 698.793 74.84L704.127 74.042C704.519 73.986 704.799 74.014 704.967 74.126C705.135 74.21 705.219 74.434 705.219 74.798V78.956L705.471 79.67V81.728H701.607ZM735.068 95.294C733.136 95.294 731.68 94.762 730.7 93.698C729.748 92.606 729.272 90.996 729.272 88.868V74.756L729.356 74.336V70.304C729.356 70.052 729.496 69.884 729.776 69.8C730.056 69.744 730.364 69.702 730.7 69.674C731.036 69.618 731.386 69.576 731.75 69.548C732.114 69.492 732.45 69.464 732.758 69.464C733.01 69.464 733.136 69.604 733.136 69.884V88.784C733.136 90.184 733.458 91.192 734.102 91.808C734.746 92.424 735.796 92.732 737.252 92.732C737.7 92.732 738.162 92.704 738.638 92.648C739.142 92.592 739.674 92.494 740.234 92.354C740.486 92.298 740.626 92.41 740.654 92.69L740.696 93.236C740.724 93.46 740.626 93.67 740.402 93.866C739.954 94.146 739.422 94.398 738.806 94.622C738.19 94.818 737.56 94.972 736.916 95.084C736.272 95.224 735.656 95.294 735.068 95.294ZM726.626 76.394C726.402 76.394 726.304 76.254 726.332 75.974L726.5 75.092C726.556 74.84 726.724 74.7 727.004 74.672L729.356 74.336H738.008L740.612 74.21C740.864 74.21 740.99 74.35 740.99 74.63C741.018 74.854 741.018 75.092 740.99 75.344C740.99 75.568 740.962 75.792 740.906 76.016C740.822 76.268 740.654 76.394 740.402 76.394H726.626ZM754.283 95.336C752.211 95.336 750.391 94.902 748.823 94.034C747.255 93.138 746.037 91.892 745.169 90.296C744.329 88.7 743.909 86.838 743.909 84.71C743.909 82.554 744.329 80.678 745.169 79.082C746.037 77.458 747.255 76.212 748.823 75.344C750.391 74.448 752.211 74 754.283 74C756.411 74 758.245 74.448 759.785 75.344C761.353 76.212 762.571 77.458 763.439 79.082C764.307 80.678 764.741 82.554 764.741 84.71C764.741 86.838 764.307 88.7 763.439 90.296C762.571 91.892 761.353 93.138 759.785 94.034C758.245 94.902 756.411 95.336 754.283 95.336ZM754.367 92.858C756.383 92.858 757.937 92.144 759.029 90.716C760.149 89.288 760.709 87.3 760.709 84.752C760.709 83.1 760.429 81.658 759.869 80.426C759.309 79.194 758.539 78.228 757.559 77.528C756.607 76.828 755.487 76.478 754.199 76.478C752.211 76.478 750.671 77.192 749.579 78.62C748.487 80.02 747.941 81.994 747.941 84.542C747.941 87.034 748.529 89.05 749.705 90.59C750.909 92.102 752.463 92.858 754.367 92.858Z" fill="black"/>
</svg>
