<svg width="986" height="150" viewBox="0 0 986 150" fill="none" xmlns="http://www.w3.org/2000/svg">
<rect width="986" height="150" fill="#F5F5F5"/>
<rect width="986" height="150" fill="#87C780"/>
<path d="M373.098 77.36C375.534 78.116 377.466 78.914 378.894 79.754C380.322 80.566 381.344 81.49 381.96 82.526C382.576 83.562 382.884 84.822 382.884 86.306C382.884 88.182 382.422 89.792 381.498 91.136C380.574 92.48 379.244 93.516 377.508 94.244C375.8 94.972 373.742 95.336 371.334 95.336C369.85 95.336 368.478 95.224 367.218 95C365.958 94.776 364.852 94.524 363.9 94.244C362.976 93.936 362.248 93.656 361.716 93.404C361.492 93.292 361.38 93.096 361.38 92.816L361.212 86.642C361.212 86.39 361.352 86.264 361.632 86.264L362.388 86.222C362.64 86.222 362.808 86.348 362.892 86.6L363.732 89.036C363.984 89.736 364.348 90.324 364.824 90.8C365.3 91.276 365.86 91.654 366.504 91.934C367.148 92.214 367.848 92.424 368.604 92.564C369.388 92.676 370.2 92.732 371.04 92.732C373.504 92.732 375.408 92.256 376.752 91.304C378.096 90.352 378.768 89.022 378.768 87.314C378.768 86.278 378.544 85.424 378.096 84.752C377.676 84.052 376.92 83.408 375.828 82.82C374.736 82.232 373.196 81.616 371.208 80.972C368.744 80.132 366.784 79.306 365.328 78.494C363.9 77.654 362.864 76.716 362.22 75.68C361.604 74.644 361.296 73.426 361.296 72.026C361.296 70.262 361.744 68.75 362.64 67.49C363.564 66.202 364.866 65.222 366.546 64.55C368.226 63.85 370.2 63.5 372.468 63.5C373.756 63.5 374.946 63.612 376.038 63.836C377.13 64.06 378.096 64.34 378.936 64.676C379.804 64.984 380.476 65.306 380.952 65.642C381.148 65.81 381.246 66.02 381.246 66.272L381.414 72.11C381.414 72.362 381.274 72.502 380.994 72.53L380.028 72.572C379.776 72.6 379.608 72.474 379.524 72.194L378.558 69.254C378.306 68.442 377.9 67.812 377.34 67.364C376.78 66.916 376.094 66.594 375.282 66.398C374.47 66.202 373.546 66.104 372.51 66.104C370.242 66.104 368.506 66.552 367.302 67.448C366.098 68.344 365.496 69.618 365.496 71.27C365.496 72.222 365.72 73.048 366.168 73.748C366.644 74.42 367.428 75.036 368.52 75.596C369.64 76.156 371.166 76.744 373.098 77.36ZM398.185 95.336C396.113 95.336 394.293 94.902 392.725 94.034C391.157 93.138 389.939 91.892 389.071 90.296C388.231 88.7 387.811 86.838 387.811 84.71C387.811 82.554 388.231 80.678 389.071 79.082C389.939 77.458 391.157 76.212 392.725 75.344C394.293 74.448 396.113 74 398.185 74C400.313 74 402.147 74.448 403.687 75.344C405.255 76.212 406.473 77.458 407.341 79.082C408.209 80.678 408.643 82.554 408.643 84.71C408.643 86.838 408.209 88.7 407.341 90.296C406.473 91.892 405.255 93.138 403.687 94.034C402.147 94.902 400.313 95.336 398.185 95.336ZM398.269 92.858C400.285 92.858 401.839 92.144 402.931 90.716C404.051 89.288 404.611 87.3 404.611 84.752C404.611 83.1 404.331 81.658 403.771 80.426C403.211 79.194 402.441 78.228 401.461 77.528C400.509 76.828 399.389 76.478 398.101 76.478C396.113 76.478 394.573 77.192 393.481 78.62C392.389 80.02 391.843 81.994 391.843 84.542C391.843 87.034 392.431 89.05 393.607 90.59C394.811 92.102 396.365 92.858 398.269 92.858ZM414.505 71.102H418.369V91.178L416.353 95.042C416.297 95.154 416.213 95.238 416.101 95.294C416.017 95.35 415.905 95.378 415.765 95.378H414.883C414.631 95.378 414.505 95.238 414.505 94.958V71.102ZM417.655 90.212C418.411 91.08 419.279 91.738 420.259 92.186C421.267 92.606 422.387 92.816 423.619 92.816C425.747 92.816 427.399 92.088 428.575 90.632C429.751 89.176 430.339 87.132 430.339 84.5C430.339 82.176 429.835 80.356 428.827 79.04C427.847 77.724 426.489 77.066 424.753 77.066C423.493 77.066 422.275 77.374 421.099 77.99C419.951 78.578 418.929 79.446 418.033 80.594L417.613 79.628C418.593 77.892 419.825 76.52 421.309 75.512C422.821 74.504 424.361 74 425.929 74C427.665 74 429.149 74.42 430.381 75.26C431.641 76.1 432.607 77.29 433.279 78.83C433.951 80.37 434.287 82.204 434.287 84.332C434.287 86.544 433.881 88.49 433.069 90.17C432.285 91.822 431.165 93.11 429.709 94.034C428.281 94.93 426.587 95.378 424.627 95.378C422.863 95.378 421.295 95 419.923 94.244C418.551 93.488 417.445 92.382 416.605 90.926L417.655 90.212ZM414.505 71.144V65.012L415.261 66.272L411.649 65.684C411.397 65.656 411.271 65.502 411.271 65.222V64.718C411.271 64.466 411.411 64.326 411.691 64.298L417.277 63.458C417.669 63.402 417.949 63.43 418.117 63.542C418.285 63.626 418.369 63.85 418.369 64.214V71.144H414.505ZM441.65 95V81.728H445.514V95H441.65ZM453.872 77.654C453.872 77.906 453.732 78.032 453.452 78.032H451.1C450.764 78.032 450.442 78.06 450.134 78.116C449.854 78.144 449.546 78.228 449.21 78.368C448.398 78.704 447.628 79.152 446.9 79.712C446.172 80.244 445.57 80.846 445.094 81.518L444.968 80.3C445.192 79.572 445.556 78.844 446.06 78.116C446.564 77.388 447.152 76.716 447.824 76.1C448.524 75.456 449.266 74.952 450.05 74.588C450.862 74.196 451.66 74 452.444 74C453.396 74 453.872 74.14 453.872 74.42V77.654ZM439.13 95C438.878 95 438.752 94.86 438.752 94.58V94.16C438.752 93.88 438.892 93.726 439.172 93.698L440.81 93.32C441.202 93.236 441.44 93.138 441.524 93.026C441.608 92.914 441.65 92.662 441.65 92.27V87.44H445.514V92.312C445.514 92.676 445.556 92.914 445.64 93.026C445.752 93.138 446.004 93.222 446.396 93.278L449 93.74C449.252 93.768 449.378 93.922 449.378 94.202V94.622C449.378 94.874 449.238 95 448.958 95H439.13ZM441.65 81.728V75.596L442.406 76.856L438.794 76.268C438.542 76.24 438.416 76.086 438.416 75.806V75.302C438.416 75.078 438.556 74.924 438.836 74.84L444.17 74.042C444.562 73.986 444.842 74.014 445.01 74.126C445.178 74.21 445.262 74.434 445.262 74.798V78.956L445.514 79.67V81.728H441.65ZM466.875 95.336C465.055 95.336 463.389 94.916 461.877 94.076C460.365 93.208 459.161 91.976 458.265 90.38C457.397 88.756 456.963 86.81 456.963 84.542C456.963 82.246 457.425 80.328 458.349 78.788C459.273 77.22 460.505 76.03 462.045 75.218C463.585 74.406 465.279 74 467.127 74C468.695 74 470.123 74.378 471.411 75.134C472.727 75.862 473.777 76.912 474.561 78.284C475.345 79.656 475.737 81.294 475.737 83.198C475.737 83.31 475.737 83.45 475.737 83.618C475.737 83.786 475.723 83.94 475.695 84.08C475.611 84.332 475.443 84.458 475.191 84.458H460.281V82.526H473.175L472.209 83.45C472.209 83.31 472.209 83.184 472.209 83.072C472.209 82.932 472.209 82.806 472.209 82.694C472.209 81.462 471.971 80.37 471.495 79.418C471.019 78.466 470.361 77.71 469.521 77.15C468.709 76.59 467.771 76.31 466.707 76.31C464.859 76.31 463.417 77.01 462.381 78.41C461.373 79.782 460.869 81.756 460.869 84.332C460.869 85.928 461.177 87.37 461.793 88.658C462.409 89.946 463.249 90.968 464.313 91.724C465.377 92.452 466.581 92.816 467.925 92.816C470.109 92.816 471.915 92.2 473.343 90.968C473.539 90.8 473.707 90.828 473.847 91.052L474.225 91.598C474.365 91.794 474.351 92.018 474.183 92.27C473.315 93.222 472.237 93.978 470.949 94.538C469.689 95.07 468.331 95.336 466.875 95.336ZM495.437 95.336C493.757 95.336 492.385 94.846 491.321 93.866C490.257 92.886 489.725 91.626 489.725 90.086C489.725 88.35 490.341 87.006 491.573 86.054C492.833 85.102 494.779 84.472 497.411 84.164L503.249 83.45L503.165 85.34L498.167 86.012C496.487 86.264 495.269 86.67 494.513 87.23C493.785 87.79 493.421 88.588 493.421 89.624C493.421 90.52 493.715 91.234 494.303 91.766C494.919 92.298 495.745 92.564 496.781 92.564C497.845 92.564 498.783 92.396 499.595 92.06C500.435 91.696 501.135 91.29 501.695 90.842C502.255 90.394 502.647 90.016 502.871 89.708L503.375 90.254C503.291 90.702 503.025 91.22 502.577 91.808C502.157 92.368 501.583 92.928 500.855 93.488C500.155 94.02 499.343 94.468 498.419 94.832C497.495 95.168 496.501 95.336 495.437 95.336ZM502.787 81.224C502.787 79.656 502.381 78.452 501.569 77.612C500.757 76.744 499.609 76.31 498.125 76.31C497.397 76.31 496.739 76.394 496.151 76.562C495.563 76.702 495.059 77.01 494.639 77.486C494.247 77.934 493.953 78.62 493.757 79.544L493.463 81.014C493.379 81.266 493.211 81.392 492.959 81.392H492.497C492.217 81.392 492.063 81.252 492.035 80.972C491.867 80.188 491.699 79.418 491.531 78.662C491.391 77.878 491.251 77.108 491.111 76.352C491.055 76.128 491.153 75.946 491.405 75.806C492.133 75.47 493.113 75.092 494.345 74.672C495.605 74.224 497.005 74 498.545 74C501.065 74 503.039 74.63 504.467 75.89C505.923 77.15 506.651 78.872 506.651 81.056V88.196H502.787V81.224ZM506.651 88.196V93.824L505.853 92.522L509.465 93.362C509.717 93.446 509.843 93.614 509.843 93.866V94.37C509.843 94.622 509.703 94.762 509.423 94.79L507.197 95C505.937 95.112 504.999 95.14 504.383 95.084C503.767 95.056 503.361 94.874 503.165 94.538C502.969 94.202 502.871 93.684 502.871 92.984V90.842L502.787 90.506V88.196H506.651ZM539.626 95.336C536.546 95.336 533.844 94.678 531.52 93.362C529.196 92.018 527.376 90.156 526.06 87.776C524.772 85.368 524.128 82.582 524.128 79.418C524.128 76.254 524.772 73.482 526.06 71.102C527.376 68.722 529.196 66.86 531.52 65.516C533.872 64.172 536.574 63.5 539.626 63.5C541.502 63.5 543.07 63.668 544.33 64.004C545.618 64.312 546.766 64.662 547.774 65.054L549.328 65.348C549.608 65.376 549.804 65.432 549.916 65.516C550.056 65.6 550.154 65.754 550.21 65.978C550.294 66.202 550.35 66.552 550.378 67.028L550.882 73.58C550.91 73.804 550.784 73.958 550.504 74.042L549.748 74.168C549.496 74.196 549.328 74.084 549.244 73.832L547.774 69.548C547.662 69.24 547.536 68.988 547.396 68.792C547.284 68.596 547.102 68.4 546.85 68.204C545.898 67.532 544.792 67.028 543.532 66.692C542.3 66.356 540.956 66.188 539.5 66.188C537.288 66.188 535.37 66.734 533.746 67.826C532.122 68.89 530.862 70.416 529.966 72.404C529.098 74.364 528.664 76.702 528.664 79.418C528.664 82.106 529.098 84.444 529.966 86.432C530.862 88.42 532.122 89.96 533.746 91.052C535.37 92.144 537.288 92.69 539.5 92.69C540.984 92.69 542.342 92.522 543.574 92.186C544.834 91.85 545.926 91.346 546.85 90.674C547.13 90.45 547.326 90.24 547.438 90.044C547.578 89.848 547.704 89.596 547.816 89.288L549.244 85.004C549.328 84.724 549.51 84.626 549.79 84.71L550.546 84.836C550.798 84.864 550.91 85.018 550.882 85.298L550.336 92.396C550.308 92.648 550.252 92.858 550.168 93.026C550.112 93.166 549.972 93.278 549.748 93.362C549.552 93.446 549.23 93.53 548.782 93.614L547.774 93.824C546.766 94.188 545.618 94.538 544.33 94.874C543.07 95.182 541.502 95.336 539.626 95.336ZM558.605 95V71.102H562.469V95H558.605ZM556.085 95C555.833 95 555.707 94.86 555.707 94.58V94.16C555.707 93.88 555.847 93.726 556.127 93.698L557.765 93.32C558.157 93.236 558.395 93.138 558.479 93.026C558.563 92.914 558.605 92.662 558.605 92.27V87.44H562.469V92.312C562.469 92.676 562.511 92.914 562.595 93.026C562.707 93.138 562.959 93.222 563.351 93.278L565.955 93.74C566.207 93.768 566.333 93.922 566.333 94.202V94.622C566.333 94.874 566.193 95 565.913 95H556.085ZM558.605 71.144V65.012L559.361 66.272L555.749 65.684C555.497 65.656 555.371 65.502 555.371 65.222V64.718C555.371 64.466 555.511 64.326 555.791 64.298L561.377 63.458C561.769 63.402 562.049 63.43 562.217 63.542C562.385 63.626 562.469 63.85 562.469 64.214V71.144H558.605ZM571.834 95V81.686H575.698V95H571.834ZM569.314 95C569.062 95 568.936 94.86 568.936 94.58V94.16C568.936 93.88 569.076 93.726 569.356 93.698L570.994 93.32C571.386 93.236 571.624 93.138 571.708 93.026C571.792 92.914 571.834 92.662 571.834 92.27V87.44H575.698V92.312C575.698 92.676 575.74 92.914 575.824 93.026C575.936 93.138 576.188 93.222 576.58 93.278L579.184 93.74C579.436 93.768 579.562 93.922 579.562 94.202V94.622C579.562 94.874 579.422 95 579.142 95H569.314ZM571.834 81.686V75.554L572.59 76.814L568.978 76.226C568.726 76.198 568.6 76.044 568.6 75.764V75.26C568.6 75.008 568.74 74.868 569.02 74.84L574.606 74C574.998 73.944 575.278 73.972 575.446 74.084C575.614 74.168 575.698 74.392 575.698 74.756V81.686H571.834ZM573.808 70.304C573.108 70.304 572.506 70.08 572.002 69.632C571.498 69.184 571.246 68.624 571.246 67.952C571.246 67.28 571.498 66.72 572.002 66.272C572.506 65.824 573.108 65.6 573.808 65.6C574.536 65.6 575.138 65.824 575.614 66.272C576.118 66.72 576.37 67.28 576.37 67.952C576.37 68.624 576.118 69.184 575.614 69.632C575.138 70.08 574.536 70.304 573.808 70.304ZM600.814 81.35C600.814 79.978 600.464 78.942 599.764 78.242C599.064 77.514 598.028 77.15 596.656 77.15C595.452 77.15 594.206 77.472 592.918 78.116C591.63 78.732 590.426 79.6 589.306 80.72L588.928 79.712C589.684 78.592 590.58 77.612 591.616 76.772C592.652 75.904 593.758 75.232 594.934 74.756C596.11 74.252 597.286 74 598.462 74C600.534 74 602.088 74.574 603.124 75.722C604.16 76.87 604.678 78.578 604.678 80.846V95H600.814V81.35ZM585.82 95V81.728H589.684V95H585.82ZM583.3 95C583.048 95 582.922 94.86 582.922 94.58V94.16C582.922 93.88 583.062 93.726 583.342 93.698L584.98 93.32C585.372 93.236 585.61 93.138 585.694 93.026C585.778 92.914 585.82 92.662 585.82 92.27V87.44H589.684V92.312C589.684 92.676 589.726 92.914 589.81 93.026C589.922 93.138 590.174 93.222 590.566 93.278L593.17 93.74C593.422 93.768 593.548 93.922 593.548 94.202V94.622C593.548 94.874 593.408 95 593.128 95H583.3ZM598.294 95C598.042 95 597.916 94.86 597.916 94.58V94.16C597.916 93.88 598.056 93.726 598.336 93.698L599.974 93.32C600.366 93.236 600.604 93.138 600.688 93.026C600.772 92.914 600.814 92.662 600.814 92.27V87.44H604.678V92.312C604.678 92.676 604.72 92.914 604.804 93.026C604.916 93.138 605.168 93.222 605.56 93.278L608.164 93.74C608.416 93.768 608.542 93.922 608.542 94.202V94.622C608.542 94.874 608.402 95 608.122 95H598.294ZM585.82 81.728V75.596L586.576 76.856L582.964 76.268C582.712 76.24 582.586 76.086 582.586 75.806V75.302C582.586 75.078 582.726 74.924 583.006 74.84L588.34 74.042C588.732 73.986 589.012 74.014 589.18 74.126C589.348 74.21 589.432 74.434 589.432 74.798V78.956L589.684 79.67V81.728H585.82ZM614.367 95V81.686H618.231V95H614.367ZM611.847 95C611.595 95 611.469 94.86 611.469 94.58V94.16C611.469 93.88 611.609 93.726 611.889 93.698L613.527 93.32C613.919 93.236 614.157 93.138 614.241 93.026C614.325 92.914 614.367 92.662 614.367 92.27V87.44H618.231V92.312C618.231 92.676 618.273 92.914 618.357 93.026C618.469 93.138 618.721 93.222 619.113 93.278L621.717 93.74C621.969 93.768 622.095 93.922 622.095 94.202V94.622C622.095 94.874 621.955 95 621.675 95H611.847ZM614.367 81.686V75.554L615.123 76.814L611.511 76.226C611.259 76.198 611.133 76.044 611.133 75.764V75.26C611.133 75.008 611.273 74.868 611.553 74.84L617.139 74C617.531 73.944 617.811 73.972 617.979 74.084C618.147 74.168 618.231 74.392 618.231 74.756V81.686H614.367ZM616.341 70.304C615.641 70.304 615.039 70.08 614.535 69.632C614.031 69.184 613.779 68.624 613.779 67.952C613.779 67.28 614.031 66.72 614.535 66.272C615.039 65.824 615.641 65.6 616.341 65.6C617.069 65.6 617.671 65.824 618.147 66.272C618.651 66.72 618.903 67.28 618.903 67.952C618.903 68.624 618.651 69.184 618.147 69.632C617.671 70.08 617.069 70.304 616.341 70.304ZM635.199 95.336C633.267 95.336 631.559 94.888 630.075 93.992C628.619 93.096 627.485 91.85 626.673 90.254C625.861 88.658 625.455 86.81 625.455 84.71C625.455 82.582 625.875 80.72 626.715 79.124C627.555 77.528 628.731 76.282 630.243 75.386C631.755 74.462 633.505 74 635.493 74C636.697 74 637.915 74.126 639.147 74.378C640.379 74.602 641.471 74.91 642.423 75.302C642.647 75.414 642.745 75.61 642.717 75.89L642.339 81.686C642.311 81.938 642.157 82.064 641.877 82.064H640.995C640.715 82.064 640.561 81.924 640.533 81.644L639.441 76.352L641.247 77.486C640.463 77.178 639.623 76.94 638.727 76.772C637.831 76.604 636.893 76.52 635.913 76.52C633.785 76.52 632.175 77.178 631.083 78.494C630.019 79.782 629.487 81.714 629.487 84.29C629.487 85.97 629.781 87.454 630.369 88.742C630.985 90.002 631.839 90.996 632.931 91.724C634.023 92.452 635.269 92.816 636.669 92.816C637.649 92.816 638.587 92.662 639.483 92.354C640.407 92.046 641.261 91.584 642.045 90.968C642.241 90.772 642.423 90.8 642.591 91.052L642.969 91.64C643.109 91.808 643.081 92.018 642.885 92.27C641.989 93.25 640.869 94.006 639.525 94.538C638.209 95.07 636.767 95.336 635.199 95.336ZM652.732 95.336C651.052 95.336 649.68 94.846 648.616 93.866C647.552 92.886 647.02 91.626 647.02 90.086C647.02 88.35 647.636 87.006 648.868 86.054C650.128 85.102 652.074 84.472 654.706 84.164L660.544 83.45L660.46 85.34L655.462 86.012C653.782 86.264 652.564 86.67 651.808 87.23C651.08 87.79 650.716 88.588 650.716 89.624C650.716 90.52 651.01 91.234 651.598 91.766C652.214 92.298 653.04 92.564 654.076 92.564C655.14 92.564 656.078 92.396 656.89 92.06C657.73 91.696 658.43 91.29 658.99 90.842C659.55 90.394 659.942 90.016 660.166 89.708L660.67 90.254C660.586 90.702 660.32 91.22 659.872 91.808C659.452 92.368 658.878 92.928 658.15 93.488C657.45 94.02 656.638 94.468 655.714 94.832C654.79 95.168 653.796 95.336 652.732 95.336ZM660.082 81.224C660.082 79.656 659.676 78.452 658.864 77.612C658.052 76.744 656.904 76.31 655.42 76.31C654.692 76.31 654.034 76.394 653.446 76.562C652.858 76.702 652.354 77.01 651.934 77.486C651.542 77.934 651.248 78.62 651.052 79.544L650.758 81.014C650.674 81.266 650.506 81.392 650.254 81.392H649.792C649.512 81.392 649.358 81.252 649.33 80.972C649.162 80.188 648.994 79.418 648.826 78.662C648.686 77.878 648.546 77.108 648.406 76.352C648.35 76.128 648.448 75.946 648.7 75.806C649.428 75.47 650.408 75.092 651.64 74.672C652.9 74.224 654.3 74 655.84 74C658.36 74 660.334 74.63 661.762 75.89C663.218 77.15 663.946 78.872 663.946 81.056V88.196H660.082V81.224ZM663.946 88.196V93.824L663.148 92.522L666.76 93.362C667.012 93.446 667.138 93.614 667.138 93.866V94.37C667.138 94.622 666.998 94.762 666.718 94.79L664.492 95C663.232 95.112 662.294 95.14 661.678 95.084C661.062 95.056 660.656 94.874 660.46 94.538C660.264 94.202 660.166 93.684 660.166 92.984V90.842L660.082 90.506V88.196H663.946Z" fill="black"/>
</svg>
